<svg width="807" height="260" viewBox="0 0 807 260" fill="none" xmlns="http://www.w3.org/2000/svg">
<rect width="807" height="260" fill="#FCE205"/>
<path d="M605 202L660.474 59H678L622.397 202H605Z" fill="#211722" stroke="#211722" stroke-width="5"/>
<path d="M693 186V157.822L750.824 130.304L693 102.999V75L776 118.365V142.344L693 186Z" fill="#211722" stroke="#211722" stroke-width="5"/>
<path d="M162.98 175.262C159.549 180.021 157.778 183.894 157.668 186.882C157.557 189.759 158.774 191.917 161.32 193.356C163.865 194.684 167.296 195.459 171.612 195.68L170.782 199C166.134 198.779 162.094 198.668 158.664 198.668C155.344 198.557 152.19 198.502 149.202 198.502C146.656 198.502 144.554 198.557 142.894 198.668C141.234 198.668 139.518 198.779 137.748 199L138.412 195.68C141.178 194.905 143.945 193.301 146.712 190.866C149.478 188.321 152.964 184.06 157.17 178.084L226.392 80.642C227.83 80.7527 229.269 80.808 230.708 80.808C232.257 80.808 233.64 80.7527 234.858 80.642L241.498 185.056C241.83 189.04 242.826 191.807 244.486 193.356C246.256 194.795 247.972 195.569 249.632 195.68L248.968 199C246.201 198.779 242.494 198.668 237.846 198.668C233.308 198.557 228.992 198.502 224.898 198.502C219.918 198.502 215.214 198.557 210.788 198.668C206.361 198.668 202.764 198.779 199.998 199L200.662 195.68C205.974 195.459 209.736 194.518 211.95 192.858C214.274 191.087 215.27 187.38 214.938 181.736L210.954 105.376L216.598 99.4L162.98 175.262ZM178.418 151.192H226.89L225.562 154.512H175.43L178.418 151.192ZM312.433 188.874L294.671 208.96L281.391 127.454C280.837 124.466 280.284 122.419 279.731 121.312C279.177 120.205 278.292 119.652 277.075 119.652C275.968 119.652 274.861 120.427 273.755 121.976C272.648 123.415 271.154 126.735 269.273 131.936L266.285 140.07H263.131L267.281 127.952C269.605 121.201 272.537 116.664 276.079 114.34C279.62 112.016 283.493 110.854 287.699 110.854C292.236 110.854 295.888 112.127 298.655 114.672C301.421 117.107 303.303 121.81 304.299 128.782L312.433 188.874ZM272.759 222.074C277.96 219.529 283.327 216.043 288.861 211.616C294.394 207.3 300.038 201.435 305.793 194.02C311.99 186.384 317.413 178.139 322.061 169.286C326.709 160.322 330.139 151.745 332.353 143.556C328.258 141.232 324.661 138.244 321.563 134.592C318.464 130.829 316.97 126.679 317.081 122.142C317.081 118.601 318.077 115.834 320.069 113.842C322.061 111.85 324.772 110.854 328.203 110.854C332.076 110.854 334.843 112.182 336.503 114.838C338.273 117.494 339.159 121.201 339.159 125.96C339.159 131.161 338.273 136.861 336.503 143.058C334.732 149.255 332.297 155.674 329.199 162.314C326.1 168.843 322.614 175.207 318.741 181.404C314.867 187.601 310.773 193.245 306.457 198.336C303.026 202.652 299.153 206.691 294.837 210.454C290.631 214.217 286.149 217.592 281.391 220.58C276.743 223.568 271.873 225.947 266.783 227.718C264.348 228.603 262.135 229.212 260.143 229.544C258.151 229.987 256.435 230.208 254.997 230.208C251.455 230.208 248.689 229.378 246.697 227.718C244.594 226.169 243.543 223.9 243.543 220.912C243.543 218.035 244.649 215.6 246.863 213.608C248.965 211.616 251.677 210.62 254.997 210.62C258.538 210.62 261.747 211.616 264.625 213.608C267.613 215.711 270.324 218.533 272.759 222.074ZM406.791 140.734C402.696 152.907 398.767 162.978 395.005 170.946C391.242 178.803 387.535 184.945 383.883 189.372C380.341 193.688 376.689 196.787 372.927 198.668C369.164 200.439 365.18 201.324 360.975 201.324C354.003 201.324 349.465 199.111 347.363 194.684C345.26 190.257 345.537 184.115 348.193 176.258L364.295 127.288C365.401 124.079 365.623 121.921 364.959 120.814C364.405 119.597 363.465 118.988 362.137 118.988C360.698 118.988 359.093 119.818 357.323 121.478C355.552 123.027 353.671 126.569 351.679 132.102L348.691 140.07H345.537L349.687 127.952C352.121 120.98 355.441 116.387 359.647 114.174C363.852 111.961 367.947 110.854 371.931 110.854C376.911 110.854 380.618 111.961 383.053 114.174C385.487 116.277 386.815 119.32 387.037 123.304C387.258 127.177 386.483 131.825 384.713 137.248L369.773 182.068C367.338 189.372 367.891 193.024 371.433 193.024C374.089 193.024 377.132 190.921 380.563 186.716C383.993 182.4 387.535 176.645 391.187 169.452C394.949 162.148 398.546 153.903 401.977 144.718C405.407 135.533 408.395 126.015 410.941 116.166L406.791 140.734ZM414.925 184.89C414.15 187.657 413.818 189.759 413.929 191.198C414.039 192.526 414.98 193.19 416.751 193.19C418.743 193.19 420.569 192.249 422.229 190.368C423.999 188.376 425.715 184.945 427.375 180.076L430.529 171.61H433.683L429.201 184.226C426.987 190.755 423.833 195.237 419.739 197.672C415.644 200.107 411.383 201.324 406.957 201.324C403.969 201.324 401.423 200.826 399.321 199.83C397.329 198.834 395.779 197.451 394.673 195.68C393.566 193.577 393.068 191.087 393.179 188.21C393.4 185.222 393.953 181.847 394.839 178.084L411.605 113.178C416.142 113.067 420.403 112.846 424.387 112.514C428.481 112.182 432.244 111.629 435.675 110.854L414.925 184.89ZM452.886 196.676C453.771 197.119 454.712 197.451 455.708 197.672C456.704 197.783 457.921 197.838 459.36 197.838C463.454 197.838 466.774 196.621 469.32 194.186C471.976 191.641 473.304 188.099 473.304 183.562C473.304 179.91 472.529 176.203 470.98 172.44C469.43 168.567 467.106 164.361 464.008 159.824C461.462 155.84 459.083 151.967 456.87 148.204C454.767 144.441 453.716 140.125 453.716 135.256C453.716 128.173 456.372 122.363 461.684 117.826C466.996 113.178 474.41 110.854 483.928 110.854C488.022 110.854 491.951 111.352 495.714 112.348C499.587 113.344 502.796 115.059 505.342 117.494C507.887 119.929 509.16 123.47 509.16 128.118C509.16 130.774 508.33 133.485 506.67 136.252C505.01 139.019 502.464 140.402 499.034 140.402C496.267 140.402 494.054 139.406 492.394 137.414C490.734 135.311 489.904 132.6 489.904 129.28C489.904 126.292 490.402 123.636 491.398 121.312C492.504 118.877 493.722 116.941 495.05 115.502C493.611 114.617 491.674 114.174 489.24 114.174C485.256 114.174 482.102 115.391 479.778 117.826C477.564 120.261 476.402 123.747 476.292 128.284C476.292 132.047 477.288 135.588 479.28 138.908C481.272 142.117 483.596 145.88 486.252 150.196C489.572 155.619 492.006 160.267 493.556 164.14C495.216 168.013 496.046 171.942 496.046 175.926C496.046 180.685 494.773 185.001 492.228 188.874C489.793 192.637 486.196 195.68 481.438 198.004C476.79 200.217 471.256 201.324 464.838 201.324C460.19 201.324 455.763 200.715 451.558 199.498C447.352 198.281 443.922 196.289 441.266 193.522C438.72 190.645 437.448 186.827 437.448 182.068C437.448 178.969 438.278 176.203 439.938 173.768C441.487 171.333 443.756 170.116 446.744 170.116C449.732 170.116 452.056 171.389 453.716 173.934C455.376 176.369 456.206 179.412 456.206 183.064C456.206 185.941 455.763 188.542 454.878 190.866C454.103 193.19 453.439 195.127 452.886 196.676ZM530.727 199H507.321L540.189 88.278C541.295 84.5153 541.185 81.7487 539.857 79.978C538.529 78.2073 535.153 77.322 529.731 77.322L530.727 73.836C538.584 73.7253 545.611 73.1167 551.809 72.01C558.006 70.7927 563.871 69.1327 569.405 67.03L530.727 199ZM534.877 174.93C539.303 162.203 543.398 151.69 547.161 143.39C551.034 135.09 554.797 128.561 558.449 123.802C562.101 119.043 565.863 115.723 569.737 113.842C573.61 111.85 577.76 110.854 582.187 110.854C587.609 110.854 591.427 112.016 593.641 114.34C595.965 116.664 597.127 119.763 597.127 123.636C597.127 127.399 596.407 131.493 594.969 135.92L578.701 184.89C577.705 187.878 577.483 190.036 578.037 191.364C578.59 192.581 579.586 193.19 581.025 193.19C582.463 193.19 584.013 192.415 585.673 190.866C587.443 189.206 589.325 185.609 591.317 180.076L594.305 172.108H597.459L593.309 184.226C590.874 191.198 587.554 195.791 583.349 198.004C579.143 200.217 575.049 201.324 571.065 201.324C565.753 201.324 561.879 200.162 559.445 197.838C557.121 195.403 555.959 192.194 555.959 188.21C555.959 184.115 556.789 179.689 558.449 174.93L573.223 130.11C573.887 128.229 574.329 126.458 574.551 124.798C574.883 123.138 574.827 121.81 574.385 120.814C574.053 119.707 573.112 119.154 571.563 119.154C568.796 119.154 565.642 121.312 562.101 125.628C558.67 129.944 555.073 135.809 551.311 143.224C547.548 150.528 543.896 158.828 540.355 168.124C536.924 177.42 533.881 187.159 531.225 197.34L534.877 174.93Z" fill="#211722"/>
<path d="M162.98 175.262L165.007 176.724L165.014 176.715L165.021 176.705L162.98 175.262ZM157.668 186.882L160.166 186.978L160.166 186.975L157.668 186.882ZM161.32 193.356L160.089 195.532L160.126 195.553L160.163 195.572L161.32 193.356ZM171.612 195.68L174.037 196.286L174.774 193.339L171.74 193.183L171.612 195.68ZM170.782 199L170.663 201.497L172.71 201.595L173.207 199.606L170.782 199ZM158.664 198.668L158.58 201.167L158.622 201.168H158.664V198.668ZM142.894 198.668V201.168H142.977L143.06 201.162L142.894 198.668ZM137.748 199L135.296 198.51L134.616 201.911L138.058 201.481L137.748 199ZM138.412 195.68L137.737 193.273L136.261 193.686L135.96 195.19L138.412 195.68ZM146.712 190.866L148.363 192.743L148.384 192.725L148.404 192.706L146.712 190.866ZM157.17 178.084L155.131 176.636L155.125 176.645L157.17 178.084ZM226.392 80.642L226.583 78.1494L225.173 78.0408L224.353 79.1942L226.392 80.642ZM234.858 80.642L237.352 80.4833L237.189 77.9197L234.631 78.1523L234.858 80.642ZM241.498 185.056L239.003 185.215L239.004 185.239L239.006 185.264L241.498 185.056ZM244.486 193.356L242.78 195.184L242.842 195.242L242.909 195.296L244.486 193.356ZM249.632 195.68L252.083 196.17L252.642 193.375L249.798 193.186L249.632 195.68ZM248.968 199L248.768 201.492L250.983 201.669L251.419 199.49L248.968 199ZM237.846 198.668L237.785 201.167L237.815 201.168H237.846V198.668ZM210.788 198.668V201.168H210.819L210.85 201.167L210.788 198.668ZM199.998 199L197.546 198.51L196.897 201.756L200.197 201.492L199.998 199ZM200.662 195.68L200.557 193.182L198.595 193.264L198.21 195.19L200.662 195.68ZM211.95 192.858L213.45 194.858L213.457 194.852L213.465 194.847L211.95 192.858ZM214.938 181.736L212.441 181.866L212.441 181.875L212.442 181.883L214.938 181.736ZM210.954 105.376L209.136 103.659L208.401 104.437L208.457 105.506L210.954 105.376ZM216.598 99.4L218.639 100.843L214.78 97.6834L216.598 99.4ZM178.418 151.192V148.692H177.304L176.559 149.52L178.418 151.192ZM226.89 151.192L229.211 152.12L230.582 148.692H226.89V151.192ZM225.562 154.512V157.012H227.254L227.883 155.44L225.562 154.512ZM175.43 154.512L173.571 152.84L169.816 157.012H175.43V154.512ZM160.952 173.8C157.464 178.638 155.309 183.023 155.169 186.789L160.166 186.975C160.248 184.765 161.634 181.404 165.007 176.724L160.952 173.8ZM155.169 186.786C155.099 188.611 155.449 190.343 156.32 191.887C157.19 193.429 158.493 194.63 160.089 195.532L162.55 191.18C161.601 190.643 161.023 190.046 160.675 189.43C160.329 188.816 160.125 188.03 160.166 186.978L155.169 186.786ZM160.163 195.572C163.147 197.129 166.973 197.945 171.483 198.177L171.74 193.183C167.618 192.972 164.583 192.239 162.476 191.14L160.163 195.572ZM169.186 195.074L168.356 198.394L173.207 199.606L174.037 196.286L169.186 195.074ZM170.9 196.503C166.226 196.28 162.145 196.168 158.664 196.168V201.168C162.043 201.168 166.041 201.277 170.663 201.497L170.9 196.503ZM158.747 196.169C155.402 196.058 152.22 196.002 149.202 196.002V201.002C152.159 201.002 155.285 201.057 158.58 201.167L158.747 196.169ZM149.202 196.002C146.626 196.002 144.463 196.058 142.727 196.174L143.06 201.162C144.644 201.057 146.686 201.002 149.202 201.002V196.002ZM142.894 196.168C141.122 196.168 139.303 196.286 137.437 196.519L138.058 201.481C139.733 201.271 141.345 201.168 142.894 201.168V196.168ZM140.199 199.49L140.863 196.17L135.96 195.19L135.296 198.51L140.199 199.49ZM139.086 198.087C142.301 197.187 145.392 195.358 148.363 192.743L145.06 188.989C142.498 191.244 140.055 192.624 137.737 193.273L139.086 198.087ZM148.404 192.706C151.373 189.974 154.983 185.535 159.214 179.523L155.125 176.645C150.945 182.585 147.583 186.667 145.019 189.026L148.404 192.706ZM159.208 179.532L228.43 82.0898L224.353 79.1942L155.131 176.636L159.208 179.532ZM226.2 83.1346C227.702 83.2502 229.205 83.308 230.708 83.308V78.308C229.333 78.308 227.958 78.2551 226.583 78.1494L226.2 83.1346ZM230.708 83.308C232.314 83.308 233.775 83.2508 235.084 83.1317L234.631 78.1523C233.506 78.2546 232.2 78.308 230.708 78.308V83.308ZM232.363 80.8007L239.003 185.215L243.993 184.897L237.352 80.4833L232.363 80.8007ZM239.006 185.264C239.354 189.438 240.427 192.988 242.78 195.184L246.191 191.528C245.224 190.625 244.305 188.642 243.989 184.848L239.006 185.264ZM242.909 195.296C244.936 196.943 247.129 198.019 249.465 198.174L249.798 193.186C248.814 193.12 247.577 192.647 246.062 191.416L242.909 195.296ZM247.18 195.19L246.516 198.51L251.419 199.49L252.083 196.17L247.18 195.19ZM249.167 196.508C246.305 196.279 242.522 196.168 237.846 196.168V201.168C242.465 201.168 246.097 201.278 248.768 201.492L249.167 196.508ZM237.906 196.169C233.351 196.058 229.015 196.002 224.898 196.002V201.002C228.97 201.002 233.265 201.057 237.785 201.167L237.906 196.169ZM224.898 196.002C219.899 196.002 215.175 196.058 210.725 196.169L210.85 201.167C215.253 201.057 219.936 201.002 224.898 201.002V196.002ZM210.788 196.168C206.328 196.168 202.658 196.279 199.798 196.508L200.197 201.492C202.87 201.278 206.393 201.168 210.788 201.168V196.168ZM202.449 199.49L203.113 196.17L198.21 195.19L197.546 198.51L202.449 199.49ZM200.766 198.178C206.189 197.952 210.603 196.993 213.45 194.858L210.45 190.858C208.87 192.043 205.758 192.965 200.557 193.182L200.766 198.178ZM213.465 194.847C216.873 192.249 217.771 187.334 217.433 181.589L212.442 181.883C212.768 187.426 211.674 189.925 210.434 190.869L213.465 194.847ZM217.434 181.606L213.45 105.246L208.457 105.506L212.441 181.866L217.434 181.606ZM212.771 107.093L218.415 101.117L214.78 97.6834L209.136 103.659L212.771 107.093ZM214.556 97.9571L160.938 173.819L165.021 176.705L218.639 100.843L214.556 97.9571ZM178.418 153.692H226.89V148.692H178.418V153.692ZM224.568 150.264L223.24 153.584L227.883 155.44L229.211 152.12L224.568 150.264ZM225.562 152.012H175.43V157.012H225.562V152.012ZM177.288 156.184L180.276 152.864L176.559 149.52L173.571 152.84L177.288 156.184ZM312.433 188.874L314.305 190.53L315.064 189.673L314.91 188.539L312.433 188.874ZM294.671 208.96L292.203 209.362L293.051 214.565L296.543 210.616L294.671 208.96ZM281.391 127.454L283.858 127.052L283.854 127.025L283.849 126.999L281.391 127.454ZM279.731 121.312L281.967 120.194L281.967 120.194L279.731 121.312ZM273.755 121.976L275.736 123.5L275.763 123.465L275.789 123.429L273.755 121.976ZM269.273 131.936L271.619 132.798L271.624 132.786L269.273 131.936ZM266.285 140.07V142.57H268.03L268.631 140.932L266.285 140.07ZM263.131 140.07L260.766 139.26L259.632 142.57H263.131V140.07ZM267.281 127.952L264.917 127.138L264.916 127.142L267.281 127.952ZM276.079 114.34L274.707 112.25L274.707 112.25L276.079 114.34ZM298.655 114.672L296.962 116.512L296.982 116.531L297.003 116.549L298.655 114.672ZM304.299 128.782L306.776 128.447L306.775 128.438L306.774 128.428L304.299 128.782ZM272.759 222.074L270.699 223.49L271.92 225.268L273.858 224.32L272.759 222.074ZM288.861 211.616L287.323 209.645L287.311 209.654L287.299 209.664L288.861 211.616ZM305.793 194.02L303.852 192.445L303.834 192.466L303.818 192.487L305.793 194.02ZM322.061 169.286L324.274 170.448L324.28 170.437L322.061 169.286ZM332.353 143.556L334.766 144.208L335.272 142.338L333.587 141.382L332.353 143.556ZM321.563 134.592L319.633 136.181L319.645 136.195L319.656 136.209L321.563 134.592ZM317.081 122.142L319.58 122.203L319.581 122.172V122.142H317.081ZM320.069 113.842L321.836 115.61L321.836 115.61L320.069 113.842ZM336.503 114.838L334.383 116.163L334.402 116.194L334.423 116.225L336.503 114.838ZM329.199 162.314L331.457 163.386L331.461 163.379L331.464 163.371L329.199 162.314ZM318.741 181.404L320.861 182.729L320.861 182.729L318.741 181.404ZM306.457 198.336L304.55 196.719L304.524 196.749L304.5 196.78L306.457 198.336ZM294.837 210.454L293.194 208.57L293.182 208.58L293.17 208.591L294.837 210.454ZM281.391 220.58L280.061 218.463L280.05 218.47L280.039 218.477L281.391 220.58ZM266.783 227.718L265.961 225.357L265.945 225.363L265.928 225.369L266.783 227.718ZM260.143 229.544L259.732 227.078L259.666 227.089L259.6 227.104L260.143 229.544ZM246.697 227.718L248.297 225.797L248.24 225.75L248.18 225.705L246.697 227.718ZM246.863 213.608L248.535 215.466L248.559 215.445L248.582 215.423L246.863 213.608ZM264.625 213.608L266.063 211.563L266.056 211.558L266.048 211.553L264.625 213.608ZM310.56 187.218L292.798 207.304L296.543 210.616L314.305 190.53L310.56 187.218ZM297.138 208.558L283.858 127.052L278.923 127.856L292.203 209.362L297.138 208.558ZM283.849 126.999C283.297 124.018 282.695 121.651 281.967 120.194L277.495 122.43C277.873 123.186 278.378 124.914 278.932 127.909L283.849 126.999ZM281.967 120.194C281.523 119.306 280.876 118.509 279.977 117.947C279.075 117.383 278.073 117.152 277.075 117.152V122.152C277.19 122.152 277.257 122.165 277.289 122.173C277.305 122.178 277.315 122.181 277.319 122.183C277.324 122.185 277.326 122.186 277.327 122.187C277.328 122.188 277.331 122.189 277.336 122.194C277.341 122.199 277.351 122.207 277.364 122.223C277.391 122.254 277.438 122.317 277.495 122.43L281.967 120.194ZM277.075 117.152C274.721 117.152 272.963 118.783 271.72 120.523L275.789 123.429C276.24 122.798 276.601 122.454 276.848 122.281C277.076 122.122 277.138 122.152 277.075 122.152V117.152ZM271.773 120.452C271.035 121.412 270.288 122.822 269.524 124.519C268.742 126.258 267.874 128.453 266.922 131.086L271.624 132.786C272.553 130.218 273.373 128.152 274.084 126.571C274.814 124.948 275.368 123.979 275.736 123.5L271.773 120.452ZM266.926 131.074L263.938 139.208L268.631 140.932L271.619 132.798L266.926 131.074ZM266.285 137.57H263.131V142.57H266.285V137.57ZM265.496 140.88L269.646 128.762L264.916 127.142L260.766 139.26L265.496 140.88ZM269.645 128.766C271.901 122.212 274.595 118.304 277.45 116.43L274.707 112.25C270.479 115.024 267.309 120.19 264.917 127.138L269.645 128.766ZM277.45 116.43C280.587 114.371 283.985 113.354 287.699 113.354V108.354C283.002 108.354 278.653 109.661 274.707 112.25L277.45 116.43ZM287.699 113.354C291.746 113.354 294.749 114.475 296.962 116.512L300.347 112.832C297.028 109.778 292.726 108.354 287.699 108.354V113.354ZM297.003 116.549C299.064 118.363 300.845 122.287 301.824 129.136L306.774 128.428C305.76 121.333 303.778 115.851 300.306 112.795L297.003 116.549ZM301.821 129.117L309.955 189.209L314.91 188.539L306.776 128.447L301.821 129.117ZM273.858 224.32C279.255 221.678 284.777 218.085 290.422 213.568L287.299 209.664C281.878 214 276.665 217.379 271.66 219.828L273.858 224.32ZM290.398 213.587C296.139 209.109 301.926 203.08 307.768 195.553L303.818 192.487C298.15 199.789 292.649 205.491 287.323 209.645L290.398 213.587ZM307.734 195.595C314.037 187.829 319.551 179.445 324.274 170.448L319.847 168.124C315.275 176.833 309.943 184.939 303.852 192.445L307.734 195.595ZM324.28 170.437C328.995 161.343 332.498 152.599 334.766 144.208L329.939 142.904C327.78 150.891 324.422 159.301 319.841 168.135L324.28 170.437ZM333.587 141.382C329.752 139.205 326.381 136.407 323.469 132.975L319.656 136.209C322.941 140.081 326.765 143.259 331.119 145.73L333.587 141.382ZM323.493 133.003C320.745 129.667 319.485 126.093 319.58 122.203L314.581 122.081C314.455 127.265 316.183 131.992 319.633 136.181L323.493 133.003ZM319.581 122.142C319.581 119.084 320.427 117.02 321.836 115.61L318.301 112.074C315.727 114.648 314.581 118.117 314.581 122.142H319.581ZM321.836 115.61C323.261 114.185 325.281 113.354 328.203 113.354V108.354C324.263 108.354 320.86 109.515 318.301 112.074L321.836 115.61ZM328.203 113.354C331.449 113.354 333.292 114.417 334.383 116.163L338.623 113.513C336.394 109.947 332.703 108.354 328.203 108.354V113.354ZM334.423 116.225C335.816 118.314 336.659 121.467 336.659 125.96H341.659C341.659 120.936 340.731 116.673 338.583 113.451L334.423 116.225ZM336.659 125.96C336.659 130.881 335.82 136.346 334.099 142.371L338.907 143.745C340.726 137.375 341.659 131.441 341.659 125.96H336.659ZM334.099 142.371C332.369 148.426 329.984 154.721 326.933 161.257L331.464 163.371C334.611 156.627 337.095 150.085 338.907 143.745L334.099 142.371ZM326.94 161.242C323.883 167.684 320.444 173.962 316.621 180.079L320.861 182.729C324.784 176.451 328.317 170.003 331.457 163.386L326.94 161.242ZM316.621 180.079C312.805 186.184 308.781 191.729 304.55 196.719L308.364 199.953C312.765 194.762 316.929 189.019 320.861 182.729L316.621 180.079ZM304.5 196.78C301.167 200.973 297.4 204.903 293.194 208.57L296.48 212.338C300.906 208.48 304.885 204.331 308.414 199.892L304.5 196.78ZM293.17 208.591C289.069 212.26 284.7 215.55 280.061 218.463L282.72 222.697C287.599 219.634 292.194 216.173 296.504 212.317L293.17 208.591ZM280.039 218.477C275.553 221.361 270.861 223.653 265.961 225.357L267.604 230.079C272.886 228.242 277.933 225.775 282.743 222.683L280.039 218.477ZM265.928 225.369C263.599 226.215 261.537 226.777 259.732 227.078L260.554 232.01C262.732 231.647 265.097 230.991 267.637 230.067L265.928 225.369ZM259.6 227.104C257.719 227.522 256.195 227.708 254.997 227.708V232.708C256.676 232.708 258.582 232.452 260.685 231.984L259.6 227.104ZM254.997 227.708C251.827 227.708 249.699 226.966 248.297 225.797L245.096 229.639C247.678 231.79 251.084 232.708 254.997 232.708V227.708ZM248.18 225.705C246.815 224.7 246.043 223.237 246.043 220.912H241.043C241.043 224.563 242.373 227.637 245.214 229.731L248.18 225.705ZM246.043 220.912C246.043 218.771 246.828 217.003 248.535 215.466L245.19 211.75C242.471 214.197 241.043 217.298 241.043 220.912H246.043ZM248.582 215.423C250.152 213.936 252.216 213.12 254.997 213.12V208.12C251.138 208.12 247.779 209.296 245.143 211.793L248.582 215.423ZM254.997 213.12C258.036 213.12 260.748 213.965 263.202 215.663L266.048 211.553C262.747 209.267 259.04 208.12 254.997 208.12V213.12ZM263.186 215.653C265.893 217.557 268.403 220.151 270.699 223.49L274.819 220.658C272.245 216.914 269.333 213.864 266.063 211.563L263.186 215.653ZM406.791 140.734L409.16 141.531L409.223 141.344L409.256 141.15L406.791 140.734ZM395.005 170.946L397.26 172.026L397.265 172.014L395.005 170.946ZM383.883 189.372L381.954 187.781L381.95 187.786L383.883 189.372ZM372.927 198.668L373.991 200.93L374.018 200.917L374.045 200.904L372.927 198.668ZM347.363 194.684L345.105 195.757L347.363 194.684ZM348.193 176.258L350.561 177.059L350.564 177.049L350.568 177.039L348.193 176.258ZM364.295 127.288L361.931 126.473L361.925 126.49L361.92 126.507L364.295 127.288ZM364.959 120.814L362.683 121.849L362.742 121.978L362.815 122.1L364.959 120.814ZM357.323 121.478L358.969 123.359L359.001 123.331L359.033 123.302L357.323 121.478ZM351.679 132.102L354.02 132.98L354.025 132.964L354.031 132.949L351.679 132.102ZM348.691 140.07V142.57H350.423L351.032 140.948L348.691 140.07ZM345.537 140.07L343.172 139.26L342.038 142.57H345.537V140.07ZM349.687 127.952L347.327 127.128L347.324 127.135L347.322 127.142L349.687 127.952ZM359.647 114.174L358.482 111.962L358.482 111.962L359.647 114.174ZM383.053 114.174L381.371 116.024L381.395 116.045L381.419 116.066L383.053 114.174ZM387.037 123.304L384.541 123.443L384.541 123.447L387.037 123.304ZM384.713 137.248L387.084 138.039L387.087 138.031L387.089 138.024L384.713 137.248ZM369.773 182.068L367.401 181.277L367.401 181.277L369.773 182.068ZM380.563 186.716L382.5 188.296L382.51 188.284L382.52 188.272L380.563 186.716ZM391.187 169.452L388.964 168.307L388.961 168.314L388.958 168.32L391.187 169.452ZM401.977 144.718L404.319 145.593L404.319 145.593L401.977 144.718ZM410.941 116.166L413.406 116.582L408.52 115.54L410.941 116.166ZM414.925 184.89L412.517 184.215L412.517 184.216L414.925 184.89ZM413.929 191.198L411.436 191.39L411.437 191.398L411.437 191.406L413.929 191.198ZM422.229 190.368L420.36 188.707L420.354 188.714L422.229 190.368ZM427.375 180.076L425.032 179.203L425.02 179.236L425.008 179.269L427.375 180.076ZM430.529 171.61V169.11H428.792L428.186 170.737L430.529 171.61ZM433.683 171.61L436.038 172.447L437.224 169.11H433.683V171.61ZM429.201 184.226L426.845 183.389L426.839 183.406L426.833 183.423L429.201 184.226ZM399.321 199.83L398.203 202.066L398.226 202.078L398.251 202.089L399.321 199.83ZM394.673 195.68L392.46 196.844L392.504 196.926L392.553 197.005L394.673 195.68ZM393.179 188.21L390.686 188.025L390.682 188.07L390.681 188.114L393.179 188.21ZM394.839 178.084L392.418 177.459L392.411 177.485L392.405 177.511L394.839 178.084ZM411.605 113.178L411.544 110.679L409.656 110.725L409.184 112.553L411.605 113.178ZM424.387 112.514L424.185 110.022L424.179 110.023L424.387 112.514ZM435.675 110.854L438.082 111.529L439.213 107.492L435.124 108.415L435.675 110.854ZM404.421 139.937C400.345 152.056 396.451 162.028 392.744 169.878L397.265 172.014C401.084 163.928 405.047 153.759 409.16 141.531L404.421 139.937ZM392.75 169.866C389.035 177.625 385.429 183.569 381.954 187.781L385.811 190.963C389.64 186.321 393.449 179.982 397.26 172.026L392.75 169.866ZM381.95 187.786C378.562 191.915 375.172 194.75 371.809 196.432L374.045 200.904C378.207 198.823 382.121 195.461 385.815 190.958L381.95 187.786ZM371.862 196.406C368.436 198.018 364.816 198.824 360.975 198.824V203.824C365.544 203.824 369.892 202.859 373.991 200.93L371.862 196.406ZM360.975 198.824C354.498 198.824 351.14 196.81 349.621 193.611L345.105 195.757C347.791 201.412 353.507 203.824 360.975 203.824V198.824ZM349.621 193.611C347.936 190.064 347.978 184.699 350.561 177.059L345.824 175.457C343.095 183.532 342.584 190.45 345.105 195.757L349.621 193.611ZM350.568 177.039L366.67 128.069L361.92 126.507L345.818 175.477L350.568 177.039ZM366.658 128.103C367.243 126.407 367.64 124.863 367.778 123.518C367.909 122.233 367.845 120.766 367.102 119.528L362.815 122.1C362.736 121.969 362.893 122.134 362.804 123.007C362.72 123.82 362.453 124.96 361.931 126.473L366.658 128.103ZM367.235 119.779C366.799 118.821 366.14 117.956 365.196 117.346C364.251 116.734 363.192 116.488 362.137 116.488V121.488C362.278 121.488 362.365 121.504 362.412 121.517C362.456 121.529 362.474 121.54 362.48 121.543C362.486 121.547 362.505 121.56 362.536 121.598C362.569 121.639 362.622 121.715 362.683 121.849L367.235 119.779ZM362.137 116.488C359.748 116.488 357.55 117.838 355.613 119.654L359.033 123.302C360.637 121.798 361.648 121.488 362.137 121.488V116.488ZM355.676 119.597C354.456 120.664 353.373 122.246 352.376 124.123C351.36 126.035 350.346 128.423 349.327 131.255L354.031 132.949C355.003 130.248 355.926 128.098 356.792 126.469C357.676 124.805 358.418 123.841 358.969 123.359L355.676 119.597ZM349.338 131.224L346.35 139.192L351.032 140.948L354.02 132.98L349.338 131.224ZM348.691 137.57H345.537V142.57H348.691V137.57ZM347.902 140.88L352.052 128.762L347.322 127.142L343.172 139.26L347.902 140.88ZM352.047 128.776C354.384 122.083 357.406 118.178 360.811 116.386L358.482 111.962C353.476 114.596 349.858 119.877 347.327 127.128L352.047 128.776ZM360.811 116.386C364.726 114.326 368.424 113.354 371.931 113.354V108.354C367.47 108.354 362.978 109.596 358.482 111.962L360.811 116.386ZM371.931 113.354C376.599 113.354 379.584 114.399 381.371 116.024L384.734 112.324C381.653 109.522 377.223 108.354 371.931 108.354V113.354ZM381.419 116.066C383.222 117.623 384.347 119.963 384.541 123.443L389.533 123.165C389.284 118.677 387.753 114.93 384.687 112.282L381.419 116.066ZM384.541 123.447C384.738 126.899 384.052 131.219 382.336 136.472L387.089 138.024C388.915 132.432 389.778 127.456 389.533 123.161L384.541 123.447ZM382.341 136.457L367.401 181.277L372.144 182.859L387.084 138.039L382.341 136.457ZM367.401 181.277C366.166 184.982 365.518 188.207 365.89 190.66C366.085 191.949 366.596 193.245 367.673 194.205C368.763 195.177 370.117 195.524 371.433 195.524V190.524C370.978 190.524 370.934 190.414 371.001 190.474C371.054 190.521 370.915 190.447 370.834 189.91C370.652 188.711 370.945 186.458 372.144 182.859L367.401 181.277ZM371.433 195.524C373.432 195.524 375.348 194.734 377.128 193.504C378.911 192.272 380.698 190.505 382.5 188.296L378.626 185.136C376.996 187.133 375.547 188.519 374.286 189.39C373.023 190.263 372.089 190.524 371.433 190.524V195.524ZM382.52 188.272C386.091 183.779 389.719 177.865 393.416 170.584L388.958 168.32C385.35 175.426 381.896 181.021 378.606 185.16L382.52 188.272ZM393.409 170.597C397.225 163.19 400.86 154.853 404.319 145.593L399.635 143.843C396.232 152.953 392.674 161.106 388.964 168.307L393.409 170.597ZM404.319 145.593C407.781 136.323 410.795 126.722 413.361 116.792L408.52 115.54C405.996 125.309 403.034 134.743 399.635 143.843L404.319 145.593ZM408.476 115.75L404.326 140.318L409.256 141.15L413.406 116.582L408.476 115.75ZM412.517 184.216C411.726 187.042 411.29 189.495 411.436 191.39L416.421 191.006C416.346 190.024 416.574 188.271 417.332 185.564L412.517 184.216ZM411.437 191.406C411.543 192.677 412.103 193.907 413.276 194.734C414.339 195.485 415.609 195.69 416.751 195.69V190.69C416.458 190.69 416.273 190.662 416.173 190.637C416.075 190.613 416.09 190.601 416.159 190.65C416.238 190.705 416.322 190.795 416.378 190.903C416.43 191.001 416.425 191.047 416.42 190.99L411.437 191.406ZM416.751 195.69C419.638 195.69 422.101 194.291 424.103 192.022L420.354 188.714C419.036 190.208 417.847 190.69 416.751 190.69V195.69ZM424.097 192.029C426.211 189.651 428.055 185.829 429.741 180.883L425.008 179.269C423.375 184.062 421.788 187.101 420.36 188.707L424.097 192.029ZM429.717 180.949L432.871 172.483L428.186 170.737L425.032 179.203L429.717 180.949ZM430.529 174.11H433.683V169.11H430.529V174.11ZM431.327 170.773L426.845 183.389L431.556 185.063L436.038 172.447L431.327 170.773ZM426.833 183.423C424.727 189.636 421.857 193.504 418.461 195.523L421.016 199.821C425.81 196.971 429.248 191.875 431.568 185.029L426.833 183.423ZM418.461 195.523C414.722 197.746 410.899 198.824 406.957 198.824V203.824C411.867 203.824 416.566 202.467 421.016 199.821L418.461 195.523ZM406.957 198.824C404.237 198.824 402.078 198.37 400.391 197.571L398.251 202.089C400.769 203.282 403.7 203.824 406.957 203.824V198.824ZM400.439 197.594C398.83 196.789 397.639 195.709 396.793 194.355L392.553 197.005C393.92 199.192 395.828 200.879 398.203 202.066L400.439 197.594ZM396.885 194.516C396.022 192.875 395.58 190.838 395.677 188.306L390.681 188.114C390.557 191.337 391.11 194.279 392.46 196.844L396.885 194.516ZM395.672 188.395C395.881 185.568 396.409 182.326 397.272 178.657L392.405 177.511C391.498 181.367 390.919 184.875 390.686 188.025L395.672 188.395ZM397.259 178.709L414.025 113.803L409.184 112.553L392.418 177.459L397.259 178.709ZM411.666 115.677C416.246 115.566 420.556 115.342 424.594 115.005L424.179 110.023C420.25 110.35 416.039 110.569 411.544 110.679L411.666 115.677ZM424.589 115.006C428.782 114.666 432.663 114.097 436.225 113.293L435.124 108.415C431.825 109.16 428.181 109.698 424.185 110.022L424.589 115.006ZM433.267 110.179L412.517 184.215L417.332 185.565L438.082 111.529L433.267 110.179ZM452.886 196.676L450.531 195.835L449.786 197.921L451.768 198.912L452.886 196.676ZM455.708 197.672L455.165 200.112L455.297 200.142L455.431 200.157L455.708 197.672ZM469.32 194.186L471.048 195.993L471.049 195.991L469.32 194.186ZM470.98 172.44L468.658 173.368L468.663 173.38L468.668 173.392L470.98 172.44ZM464.008 159.824L461.901 161.17L461.921 161.202L461.943 161.234L464.008 159.824ZM456.87 148.204L454.687 149.424L454.701 149.448L454.715 149.472L456.87 148.204ZM461.684 117.826L463.307 119.727L463.319 119.717L463.33 119.707L461.684 117.826ZM495.714 112.348L495.074 114.765L495.082 114.767L495.091 114.769L495.714 112.348ZM505.342 117.494L507.07 115.687L507.07 115.687L505.342 117.494ZM506.67 136.252L508.813 137.538L508.813 137.538L506.67 136.252ZM492.394 137.414L490.431 138.963L490.452 138.989L490.473 139.014L492.394 137.414ZM491.398 121.312L489.122 120.277L489.11 120.302L489.1 120.327L491.398 121.312ZM495.05 115.502L496.887 117.198L498.947 114.965L496.36 113.373L495.05 115.502ZM479.778 117.826L477.969 116.1L477.948 116.122L477.928 116.144L479.778 117.826ZM476.292 128.284L473.792 128.223L473.792 128.254V128.284H476.292ZM479.28 138.908L477.136 140.194L477.146 140.21L477.155 140.226L479.28 138.908ZM486.252 150.196L488.384 148.891L488.381 148.886L486.252 150.196ZM493.556 164.14L491.234 165.068L491.246 165.097L491.258 165.125L493.556 164.14ZM492.228 188.874L490.138 187.501L490.133 187.508L490.129 187.516L492.228 188.874ZM481.438 198.004L482.512 200.261L482.524 200.256L482.535 200.25L481.438 198.004ZM451.558 199.498L450.862 201.899L450.862 201.899L451.558 199.498ZM441.266 193.522L439.393 195.178L439.427 195.217L439.462 195.253L441.266 193.522ZM439.938 173.768L442.003 175.176L442.025 175.144L442.047 175.11L439.938 173.768ZM453.716 173.934L451.622 175.3L451.636 175.321L451.65 175.342L453.716 173.934ZM454.878 190.866L452.541 189.976L452.523 190.025L452.506 190.075L454.878 190.866ZM451.768 198.912C452.841 199.449 453.976 199.848 455.165 200.112L456.25 195.232C455.447 195.053 454.701 194.788 454.004 194.44L451.768 198.912ZM455.431 200.157C456.549 200.281 457.865 200.338 459.36 200.338V195.338C457.977 195.338 456.858 195.284 455.984 195.187L455.431 200.157ZM459.36 200.338C463.986 200.338 467.962 198.944 471.048 195.993L467.592 192.379C465.587 194.297 462.923 195.338 459.36 195.338V200.338ZM471.049 195.991C474.308 192.868 475.804 188.611 475.804 183.562H470.804C470.804 187.588 469.643 190.413 467.59 192.381L471.049 195.991ZM475.804 183.562C475.804 179.548 474.951 175.518 473.291 171.488L468.668 173.392C470.107 176.887 470.804 180.272 470.804 183.562H475.804ZM473.301 171.512C471.666 167.425 469.243 163.058 466.072 158.414L461.943 161.234C464.969 165.665 467.194 169.708 468.658 173.368L473.301 171.512ZM466.114 158.478C463.584 154.518 461.221 150.671 459.024 146.936L454.715 149.472C456.945 153.263 459.34 157.162 461.901 161.17L466.114 158.478ZM459.052 146.984C457.183 143.641 456.216 139.755 456.216 135.256H451.216C451.216 140.496 452.35 145.242 454.687 149.424L459.052 146.984ZM456.216 135.256C456.216 128.893 458.56 123.782 463.307 119.727L460.06 115.925C454.183 120.945 451.216 127.454 451.216 135.256H456.216ZM463.33 119.707C468.048 115.579 474.803 113.354 483.928 113.354V108.354C474.018 108.354 465.943 110.777 460.037 115.945L463.33 119.707ZM483.928 113.354C487.818 113.354 491.53 113.827 495.074 114.765L496.353 109.931C492.371 108.877 488.227 108.354 483.928 108.354V113.354ZM495.091 114.769C498.606 115.673 501.418 117.2 503.614 119.301L507.07 115.687C504.175 112.918 500.567 111.015 496.336 109.927L495.091 114.769ZM503.614 119.301C505.522 121.127 506.66 123.925 506.66 128.118H511.66C511.66 123.015 510.251 118.731 507.07 115.687L503.614 119.301ZM506.66 128.118C506.66 130.233 506.003 132.504 504.526 134.966L508.813 137.538C510.656 134.467 511.66 131.315 511.66 128.118H506.66ZM504.526 134.966C503.351 136.923 501.654 137.902 499.034 137.902V142.902C503.275 142.902 506.668 141.114 508.813 137.538L504.526 134.966ZM499.034 137.902C496.952 137.902 495.464 137.193 494.314 135.814L490.473 139.014C492.643 141.619 495.582 142.902 499.034 142.902V137.902ZM494.356 135.865C493.121 134.301 492.404 132.176 492.404 129.28H487.404C487.404 133.024 488.346 136.322 490.431 138.963L494.356 135.865ZM492.404 129.28C492.404 126.57 492.855 124.258 493.695 122.297L489.1 120.327C487.948 123.014 487.404 126.014 487.404 129.28H492.404ZM493.673 122.347C494.707 120.072 495.792 118.384 496.887 117.198L493.213 113.806C491.651 115.497 490.301 117.683 489.122 120.277L493.673 122.347ZM496.36 113.373C494.39 112.161 491.944 111.674 489.24 111.674V116.674C491.405 116.674 492.832 117.073 493.739 117.631L496.36 113.373ZM489.24 111.674C484.708 111.674 480.851 113.081 477.969 116.1L481.586 119.552C483.352 117.702 485.803 116.674 489.24 116.674V111.674ZM477.928 116.144C475.18 119.167 473.912 123.313 473.792 128.223L478.791 128.345C478.892 124.181 479.949 121.354 481.627 119.508L477.928 116.144ZM473.792 128.284C473.792 132.513 474.918 136.498 477.136 140.194L481.423 137.622C479.657 134.678 478.792 131.58 478.792 128.284H473.792ZM477.155 140.226C479.145 143.432 481.468 147.192 484.122 151.506L488.381 148.886C485.724 144.568 483.398 140.802 481.404 137.59L477.155 140.226ZM484.119 151.501C487.4 156.859 489.757 161.375 491.234 165.068L495.877 163.212C494.256 159.159 491.743 154.378 488.384 148.891L484.119 151.501ZM491.258 165.125C492.792 168.705 493.546 172.3 493.546 175.926H498.546C498.546 171.584 497.639 167.321 495.853 163.155L491.258 165.125ZM493.546 175.926C493.546 180.211 492.408 184.047 490.138 187.501L494.317 190.247C497.138 185.954 498.546 181.159 498.546 175.926H493.546ZM490.129 187.516C487.983 190.832 484.766 193.596 480.34 195.758L482.535 200.25C487.627 197.764 491.603 194.441 494.326 190.232L490.129 187.516ZM480.363 195.747C476.123 197.766 470.974 198.824 464.838 198.824V203.824C471.539 203.824 477.456 202.669 482.512 200.261L480.363 195.747ZM464.838 198.824C460.41 198.824 456.219 198.245 452.253 197.097L450.862 201.899C455.307 203.186 459.969 203.824 464.838 203.824V198.824ZM452.253 197.097C448.409 195.984 445.38 194.198 443.069 191.791L439.462 195.253C442.463 198.379 446.296 200.578 450.862 201.899L452.253 197.097ZM443.138 191.866C441.087 189.547 439.948 186.368 439.948 182.068H434.948C434.948 187.285 436.353 191.742 439.393 195.178L443.138 191.866ZM439.948 182.068C439.948 179.444 440.641 177.174 442.003 175.176L437.872 172.36C435.914 175.232 434.948 178.494 434.948 182.068H439.948ZM442.047 175.11C443.118 173.427 444.574 172.616 446.744 172.616V167.616C442.937 167.616 439.856 169.24 437.828 172.426L442.047 175.11ZM446.744 172.616C448.869 172.616 450.414 173.447 451.622 175.3L455.81 172.568C453.698 169.33 450.594 167.616 446.744 167.616V172.616ZM451.65 175.342C452.966 177.272 453.706 179.793 453.706 183.064H458.706C458.706 179.031 457.785 175.465 455.781 172.526L451.65 175.342ZM453.706 183.064C453.706 185.684 453.303 187.977 452.541 189.976L457.214 191.756C458.223 189.107 458.706 186.198 458.706 183.064H453.706ZM452.506 190.075C451.734 192.39 451.076 194.308 450.531 195.835L455.24 197.517C455.801 195.945 456.471 193.99 457.249 191.657L452.506 190.075ZM530.727 199V201.5H532.599L533.126 199.703L530.727 199ZM507.321 199L504.924 198.289L503.971 201.5H507.321V199ZM540.189 88.278L542.585 88.9894L542.587 88.9834L540.189 88.278ZM539.857 79.978L537.857 81.478L537.857 81.478L539.857 79.978ZM529.731 77.322L527.327 76.6352L526.416 79.822H529.731V77.322ZM530.727 73.836L530.691 71.3362L528.833 71.3624L528.323 73.1492L530.727 73.836ZM551.809 72.01L552.248 74.4711L552.269 74.4673L552.29 74.4631L551.809 72.01ZM569.405 67.03L571.804 67.7331L573.218 62.9064L568.517 64.693L569.405 67.03ZM534.877 174.93L532.515 174.109L532.444 174.314L532.409 174.528L534.877 174.93ZM547.161 143.39L544.895 142.333L544.889 142.345L544.884 142.358L547.161 143.39ZM558.449 123.802L560.432 125.324L560.432 125.324L558.449 123.802ZM569.737 113.842L570.829 116.091L570.855 116.078L570.88 116.065L569.737 113.842ZM593.641 114.34L591.83 116.064L591.851 116.086L591.873 116.108L593.641 114.34ZM594.969 135.92L597.341 136.708L597.344 136.7L597.346 136.693L594.969 135.92ZM578.701 184.89L581.072 185.681L581.073 185.678L578.701 184.89ZM578.037 191.364L575.729 192.326L575.744 192.362L575.761 192.399L578.037 191.364ZM585.673 190.866L587.378 192.694L587.382 192.69L585.673 190.866ZM591.317 180.076L588.976 179.198L588.97 179.214L588.964 179.229L591.317 180.076ZM594.305 172.108V169.608H592.572L591.964 171.23L594.305 172.108ZM597.459 172.108L599.824 172.918L600.957 169.608H597.459V172.108ZM593.309 184.226L595.669 185.05L595.671 185.043L595.674 185.036L593.309 184.226ZM583.349 198.004L584.513 200.216L584.513 200.216L583.349 198.004ZM559.445 197.838L557.636 199.564L557.676 199.606L557.718 199.646L559.445 197.838ZM558.449 174.93L560.809 175.753L560.816 175.733L560.823 175.713L558.449 174.93ZM573.223 130.11L570.865 129.278L570.856 129.303L570.848 129.327L573.223 130.11ZM574.551 124.798L572.099 124.308L572.083 124.387L572.073 124.468L574.551 124.798ZM574.385 120.814L571.99 121.532L572.036 121.684L572.1 121.829L574.385 120.814ZM562.101 125.628L560.168 124.042L560.156 124.057L560.144 124.072L562.101 125.628ZM551.311 143.224L553.533 144.369L553.537 144.362L553.54 144.355L551.311 143.224ZM540.355 168.124L538.018 167.234L538.014 167.246L538.009 167.258L540.355 168.124ZM531.225 197.34L528.757 196.938L533.644 197.971L531.225 197.34ZM530.727 196.5H507.321V201.5H530.727V196.5ZM509.717 199.711L542.585 88.9894L537.792 87.5665L504.924 198.289L509.717 199.711ZM542.587 88.9834C543.751 85.0272 543.924 81.2352 541.857 78.478L537.857 81.478C538.445 82.2622 538.84 84.0034 537.79 87.5726L542.587 88.9834ZM541.857 78.478C540.708 76.9462 538.902 76.0762 536.963 75.5678C534.988 75.0496 532.552 74.822 529.731 74.822V79.822C532.332 79.822 534.295 80.0371 535.695 80.4042C537.132 80.7811 537.677 81.2392 537.857 81.478L541.857 78.478ZM532.134 78.0088L533.13 74.5228L528.323 73.1492L527.327 76.6352L532.134 78.0088ZM530.762 76.3358C538.723 76.2236 545.889 75.6066 552.248 74.4711L551.369 69.5489C545.333 70.6268 538.445 71.227 530.691 71.3362L530.762 76.3358ZM552.29 74.4631C558.617 73.2204 564.619 71.5229 570.293 69.367L568.517 64.693C563.124 66.7424 557.395 68.3649 551.327 69.5569L552.29 74.4631ZM567.006 66.3269L528.328 198.297L533.126 199.703L571.804 67.7331L567.006 66.3269ZM537.238 175.751C541.65 163.066 545.717 152.629 549.438 144.422L544.884 142.358C541.079 150.751 536.956 161.341 532.515 174.109L537.238 175.751ZM549.426 144.447C553.258 136.235 556.932 129.884 560.432 125.324L556.465 122.28C552.661 127.237 548.81 133.945 544.895 142.333L549.426 144.447ZM560.432 125.324C563.935 120.76 567.415 117.749 570.829 116.091L568.644 111.593C564.312 113.698 560.266 117.327 556.465 122.28L560.432 125.324ZM570.88 116.065C574.394 114.258 578.151 113.354 582.187 113.354V108.354C577.369 108.354 572.826 109.442 568.593 111.619L570.88 116.065ZM582.187 113.354C587.372 113.354 590.327 114.486 591.83 116.064L595.451 112.616C592.527 109.546 587.847 108.354 582.187 108.354V113.354ZM591.873 116.108C593.645 117.88 594.627 120.298 594.627 123.636H599.627C599.627 119.227 598.284 115.448 595.408 112.572L591.873 116.108ZM594.627 123.636C594.627 127.083 593.967 130.913 592.591 135.147L597.346 136.693C598.848 132.073 599.627 127.715 599.627 123.636H594.627ZM592.596 135.132L576.328 184.102L581.073 185.678L597.341 136.708L592.596 135.132ZM576.329 184.099C575.796 185.697 575.436 187.172 575.301 188.494C575.167 189.794 575.231 191.131 575.729 192.326L580.344 190.402C580.289 190.269 580.187 189.863 580.275 189.005C580.36 188.169 580.609 187.071 581.072 185.681L576.329 184.099ZM575.761 192.399C576.213 193.394 576.91 194.265 577.895 194.867C578.868 195.461 579.952 195.69 581.025 195.69V190.69C580.659 190.69 580.526 190.615 580.502 190.6C580.491 190.593 580.413 190.551 580.313 190.329L575.761 192.399ZM581.025 195.69C583.377 195.69 585.512 194.436 587.378 192.694L583.967 189.038C582.513 190.395 581.55 190.69 581.025 190.69V195.69ZM587.382 192.69C588.564 191.582 589.631 189.985 590.627 188.082C591.638 186.15 592.65 183.753 593.669 180.923L588.964 179.229C587.991 181.932 587.067 184.101 586.196 185.765C585.311 187.458 584.552 188.49 583.963 189.042L587.382 192.69ZM593.657 180.954L596.645 172.986L591.964 171.23L588.976 179.198L593.657 180.954ZM594.305 174.608H597.459V169.608H594.305V174.608ZM595.093 171.298L590.943 183.416L595.674 185.036L599.824 172.918L595.093 171.298ZM590.948 183.402C588.611 190.095 585.589 194 582.184 195.792L584.513 200.216C589.519 197.582 593.137 192.301 595.669 185.05L590.948 183.402ZM582.184 195.792C578.269 197.852 574.572 198.824 571.065 198.824V203.824C575.526 203.824 580.018 202.582 584.513 200.216L582.184 195.792ZM571.065 198.824C566.038 198.824 562.934 197.713 561.171 196.03L557.718 199.646C560.825 202.611 565.467 203.824 571.065 203.824V198.824ZM561.253 196.112C559.453 194.226 558.459 191.677 558.459 188.21H553.459C553.459 192.711 554.788 196.581 557.636 199.564L561.253 196.112ZM558.459 188.21C558.459 184.452 559.221 180.306 560.809 175.753L556.088 174.107C554.356 179.071 553.459 183.779 553.459 188.21H558.459ZM560.823 175.713L575.597 130.893L570.848 129.327L556.074 174.147L560.823 175.713ZM575.58 130.942C576.291 128.928 576.781 126.988 577.029 125.128L572.073 124.468C571.878 125.928 571.482 127.529 570.865 129.278L575.58 130.942ZM577.002 125.288C577.383 123.382 577.409 121.463 576.669 119.799L572.1 121.829C572.246 122.157 572.382 122.894 572.099 124.308L577.002 125.288ZM576.779 120.096C576.444 118.977 575.745 118.03 574.698 117.414C573.715 116.836 572.606 116.654 571.563 116.654V121.654C571.805 121.654 571.968 121.676 572.068 121.698C572.166 121.72 572.187 121.738 572.163 121.724C572.133 121.706 572.083 121.668 572.037 121.609C571.994 121.552 571.985 121.516 571.99 121.532L576.779 120.096ZM571.563 116.654C569.517 116.654 567.549 117.451 565.71 118.709C563.871 119.968 562.026 121.777 560.168 124.042L564.033 127.214C565.716 125.163 567.22 123.735 568.534 122.836C569.849 121.936 570.842 121.654 571.563 121.654V116.654ZM560.144 124.072C556.57 128.569 552.886 134.595 549.081 142.093L553.54 144.355C557.261 137.023 560.77 131.319 564.058 127.184L560.144 124.072ZM549.088 142.079C545.275 149.481 541.586 157.868 538.018 167.234L542.691 169.014C546.206 159.788 549.821 151.575 553.533 144.369L549.088 142.079ZM538.009 167.258C534.548 176.636 531.481 186.453 528.806 196.709L533.644 197.971C536.28 187.864 539.299 178.204 542.7 168.99L538.009 167.258ZM533.692 197.742L537.344 175.332L532.409 174.528L528.757 196.938L533.692 197.742Z" fill="#211722"/>
<path d="M124 186L41 142.44V118.313L124 75V103.338L66.1642 130.074L124 157.819V186Z" fill="#211722" stroke="#211722" stroke-width="5"/>
</svg>
