<svg width="103" height="119" viewBox="0 0 103 119" fill="none" xmlns="http://www.w3.org/2000/svg">
<path fill-rule="evenodd" clip-rule="evenodd" d="M1.78101 0.957581C0.710287 0.957581 -0.0874103 1.83632 0.00769456 2.91006L9.03379 104.871C9.12889 105.945 10.0504 107.06 11.0824 107.348L49.3847 118.059C50.4165 118.347 52.1045 118.347 53.1365 118.059L91.5553 107.331C92.5871 107.043 93.5097 105.929 93.6046 104.855L102.646 2.91006C102.741 1.83632 101.943 0.957581 100.872 0.957581H1.78101ZM83.0955 28.0366C83.1906 26.9626 83.338 25.2997 83.4233 24.3419C83.5082 23.3837 82.7016 22.6 81.6311 22.6005H53.2735H51.3063H49.3382H20.9462C19.8755 22.6005 19.0694 23.3844 19.1538 24.3422C19.2391 25.3004 19.3866 26.9628 19.4817 28.0368L22.3066 59.9157C22.4017 60.9892 23.355 61.8682 24.4258 61.8682H49.3382H51.3063H53.2735H65.2126C66.2833 61.8682 67.081 62.7469 66.9852 63.8209L65.8339 76.7504C65.7382 77.8239 64.8142 78.9327 63.781 79.2139L53.1641 82.1031C52.1304 82.3842 51.2813 82.6147 51.2765 82.6147C51.2717 82.6147 50.4222 82.3847 49.389 82.1035L38.7912 79.2212C37.7573 78.9401 36.8342 77.8317 36.7391 76.7578L36.1671 70.3044C36.0713 69.2304 35.118 68.3516 34.0473 68.3516H30.9639H27.0707H25.003C23.9323 68.3516 23.1337 69.2304 23.2288 70.3044L24.6872 86.7896C24.7821 87.8636 25.704 88.9781 26.7358 89.2664L49.3926 95.5979C50.4249 95.8859 51.2817 96.1192 51.2977 96.1157C51.3138 96.1121 52.1709 95.8738 53.2027 95.586L75.8354 89.2659C76.8672 88.9777 77.7546 88.2488 77.8078 87.6461C77.8599 87.043 77.981 85.6712 78.0768 84.5972L80.7595 54.3168C80.8544 53.2432 81.0027 51.5799 81.0896 50.6222C81.1761 49.6644 80.466 48.8805 79.5124 48.8805H75.8306H53.2735H51.3063H49.3382H36.2149C35.1444 48.8805 34.1902 48.0015 34.0951 46.928L33.2607 37.5357C33.1656 36.4619 33.9633 35.5832 35.0341 35.5832H49.338H51.3061H53.2733H80.4328H82.4015C82.414 35.5832 82.4821 34.9263 82.5537 34.1234C82.6256 33.3207 82.7619 31.7852 82.8577 30.7117L83.0955 28.0366Z" fill="#DD512A"/>
<path d="M52 23H82C82.4961 23 83.5 23.798 83.5 24.9898C83.5 26.1816 82.8385 33.1009 82.5078 36.4116H34.8799C34.3837 36.5771 33.3915 37.1068 33.3915 37.9014C33.3915 38.6959 33.8876 45.0193 34.3837 48.3299C34.3837 48.3299 34.8799 49.3231 35.8721 49.3231C36.8301 49.3231 65.6395 49.1576 80.0271 49.3231C80.3579 49.4887 81.5 50.3082 81.5 51.5C81.5 52.6918 79.0349 76.8016 78.0426 88.5544C77.8773 88.72 77.3481 89.1503 76.5543 89.5476C75.7605 89.9449 60.0168 94.3481 52.2442 96.5C43.6447 94.1825 26.8426 89.051 26.4457 89.051C25.9496 89.051 25.4535 88.0578 25.4535 88.0578C25.4535 88.0578 23.9651 75.8084 23.469 70.1803C23.469 69.6837 23.9651 68.6905 24.9574 68.6905H35.376C36.0943 68.6905 36.3682 70.6769 36.3682 70.6769C36.3682 70.6769 37.3605 76.1395 37.8566 78.6224C41.3295 79.9467 48.4454 82.5952 51.2519 82.5952C53.2364 82.5952 64.0078 79.7449 65 79C66.9845 77.5102 67.1279 65.2143 67.1279 64.2211C67.1279 63.2279 65.6395 62.2347 64.6473 62.2347C63.0784 62.2347 23.9651 61.7381 23.9651 61.7381C23.9651 61.7381 22.4768 61.2415 22.4768 60.2483C22.4768 59.4537 20.4923 36.4116 19.5 24.9898C19.5 24.4932 19.4124 23 21 23H52Z" fill="white"/>
<path d="M52 23H82C82.4961 23 83.5 23.798 83.5 24.9898C83.5 26.1816 82.8385 33.1009 82.5078 36.4116H34.8799C34.3837 36.5771 33.3915 37.1068 33.3915 37.9014C33.3915 38.6959 33.8876 45.0193 34.3837 48.3299C34.3837 48.3299 34.8799 49.3231 35.8721 49.3231C36.8301 49.3231 65.6395 49.1576 80.0271 49.3231C80.3579 49.4887 81.5 50.3082 81.5 51.5C81.5 52.6918 79.0349 76.8016 78.0426 88.5544C77.8773 88.72 77.3481 89.1503 76.5543 89.5476C75.7605 89.9449 60.0168 94.3481 52.2442 96.5C43.6447 94.1825 26.8426 89.051 26.4457 89.051C25.9496 89.051 25.4535 88.0578 25.4535 88.0578C25.4535 88.0578 23.9651 75.8084 23.469 70.1803C23.469 69.6837 23.9651 68.6905 24.9574 68.6905M52 23C42.4083 23 22.5876 23 21 23M52 23H21M24.9574 68.6905C25.7512 68.6905 32.0685 68.6905 35.376 68.6905M24.9574 68.6905H35.376M35.376 68.6905C36.0943 68.6905 36.3682 70.6769 36.3682 70.6769C36.3682 70.6769 37.3605 76.1395 37.8566 78.6224C41.3295 79.9467 48.4454 82.5952 51.2519 82.5952C53.2364 82.5952 64.0078 79.7449 65 79C66.9845 77.5102 67.1279 65.2143 67.1279 64.2211C67.1279 63.2279 65.6395 62.2347 64.6473 62.2347C63.0784 62.2347 23.9651 61.7381 23.9651 61.7381C23.9651 61.7381 22.4768 61.2415 22.4768 60.2483C22.4768 59.4537 20.4923 36.4116 19.5 24.9898C19.5 24.4932 19.4124 23 21 23" stroke="white"/>
</svg>
