<svg width="103" height="119" viewBox="0 0 103 119" fill="none" xmlns="http://www.w3.org/2000/svg">
<path d="M9.57958 106.439L0.0509033 0.957581L102.704 0.99784L93.2558 106.359L51.2976 118.276L9.57958 106.439ZM85.5287 100.682L93.496 10.3382H51.4577L51.778 109.982L85.5287 100.682V100.682ZM47.5341 23.5838H37.3248L37.2047 77.6533L17.3867 72.2181L17.4267 84.578L47.5341 92.7509V23.5838V23.5838Z" fill="#D4B830"/>
<path opacity="0.986" d="M17.4267 84.5781L17.3867 72.2182C17.3867 72.2182 30.0382 75.8013 37.2047 77.6533L37.3249 23.6241H47.5342V92.7509L17.4267 84.5781V84.5781Z" fill="#EBEBEB" fill-opacity="0.9216"/>
<path d="M51.4577 10.298H93.496L85.5287 100.642L51.4577 109.942V10.298ZM83.3668 85.5041L86.1293 51.7258L65.7107 54.0206V35.984L87.4905 35.9035L88.3713 23.5839L55.5014 23.7449L55.9418 68.5948L75.7999 65.1727L75.5196 75.1572L55.5014 80.5118L55.7016 92.7509L83.3668 85.5041Z" fill="#FDD83C"/>
<path d="M88.5 23.5H55.5L56 68.5L75.5 65.5V75L55.5 80.5V93L83.5 85.5L86 51.5L65.5 54V36H87.5L88.5 23.5Z" fill="white" stroke="white"/>
</svg>
