<svg width="459" height="123" viewBox="0 0 459 123" fill="none" xmlns="http://www.w3.org/2000/svg">
<rect width="459" height="123" rx="10" fill="white"/>
<path d="M70.509 51.6905C64.5928 25.5911 52.2618 18.6431 49.1163 13.7316C47.8192 11.5679 46.6702 9.31894 45.6771 7C45.5109 9.31857 45.2057 10.7793 43.2349 12.5375C39.2778 16.0656 22.4721 29.7606 21.0577 59.4152C19.74 87.0641 41.3839 104.113 44.2435 105.875C46.4422 106.957 49.1202 105.899 50.4263 104.906C60.8599 97.745 75.1152 78.6554 70.5206 51.6905" fill="#10AA50"/>
<path d="M46.5736 91.1525C46.0288 97.9962 45.6385 101.973 44.2551 105.883C44.2551 105.883 45.1632 112.398 45.8008 119.3H48.0575C48.5958 114.44 49.4177 109.616 50.5191 104.851C47.5977 103.414 46.6857 97.1576 46.5736 91.1525Z" fill="#10AA50"/>
<path d="M50.5152 104.855C47.5629 103.491 46.7089 97.1035 46.5775 91.1525C47.3076 81.3359 47.5204 71.4877 47.2151 61.6487C47.0605 56.486 47.2885 13.832 45.9437 7.58736C46.8636 9.70238 47.9235 11.7537 49.1163 13.7277C52.2618 18.6431 64.5966 25.5911 70.509 51.6905C75.1152 78.6091 60.9371 97.6484 50.5152 104.855Z" fill="#12924F"/>
<path d="M439.649 95.4187C438.385 95.4186 437.149 95.0447 436.096 94.3442C435.044 93.6436 434.223 92.6475 433.735 91.4813C433.247 90.315 433.115 89.0306 433.355 87.7895C433.596 86.5484 434.197 85.406 435.085 84.506C435.973 83.606 437.107 82.9885 438.344 82.7312C439.582 82.4739 440.868 82.5883 442.041 83.0599C443.214 83.5315 444.221 84.3394 444.936 85.3819C445.651 86.4244 446.042 87.655 446.06 88.919C446.083 89.7713 445.933 90.6195 445.62 91.4126C445.307 92.2057 444.837 92.9274 444.239 93.5344C443.64 94.1415 442.925 94.6213 442.136 94.9451C441.347 95.2689 440.501 95.43 439.649 95.4187V95.4187ZM439.649 83.1767C438.494 83.169 437.362 83.5043 436.398 84.1402C435.434 84.776 434.68 85.6837 434.232 86.7483C433.784 87.8129 433.662 88.9866 433.881 90.1206C434.101 91.2546 434.652 92.2979 435.465 93.1184C436.278 93.9389 437.316 94.4997 438.448 94.7298C439.58 94.9598 440.755 94.8488 441.823 94.4106C442.892 93.9725 443.807 93.2271 444.452 92.2687C445.096 91.3104 445.442 90.1822 445.445 89.0272C445.46 88.2593 445.321 87.4963 445.036 86.7832C444.75 86.0701 444.325 85.4216 443.784 84.876C443.244 84.3304 442.599 83.8989 441.889 83.607C441.178 83.3151 440.417 83.1688 439.649 83.1767V83.1767ZM441.194 93.0615L439.541 89.4948H438.207V93.0615H437.237V84.9465H439.629C441.411 84.9465 442.153 85.7194 442.153 87.2148C442.153 88.405 441.593 89.147 440.549 89.375L442.257 93.0499L441.194 93.0615ZM438.246 88.6562H439.649C440.785 88.6562 441.218 88.2698 441.218 87.2342C441.218 86.1985 440.804 85.8469 439.525 85.8469H438.246V88.6562Z" fill="#21313C"/>
<path d="M344.236 89.5759C345.971 90.9632 349.437 91.5351 352.494 91.5351C356.454 91.5351 360.338 90.8009 364.133 87.3733C367.997 83.8606 370.656 78.4854 370.656 69.9028C370.656 61.6564 367.518 54.9635 361.08 51.0451C357.448 48.7613 352.741 47.8609 347.373 47.8609C345.828 47.8609 344.236 47.9421 343.331 48.3517C342.961 48.6443 342.698 49.0523 342.586 49.511C342.423 50.9794 342.423 62.1627 342.423 68.7745C342.423 75.5524 342.423 85.0045 342.586 86.1637C342.671 87.1453 343.165 88.8687 344.236 89.5914V89.5759ZM327.758 44.1899C329.161 44.1899 334.494 44.4333 336.975 44.4333C341.612 44.4333 344.815 44.1899 353.483 44.1899C360.748 44.1899 366.861 46.1491 371.232 49.9013C376.518 54.4766 379.347 60.8411 379.347 68.5967C379.347 79.6176 374.323 85.986 369.272 89.5759C364.249 93.332 357.714 95.4535 348.405 95.4535C343.451 95.4535 334.946 95.2912 327.847 95.21H327.7C327.368 94.557 328.307 92.0104 328.887 91.9447C330.819 91.7283 331.329 91.651 332.218 91.2839C333.717 90.6695 334.069 89.9044 334.235 87.211C334.482 82.1487 334.401 76.1089 334.401 69.2498C334.401 64.3537 334.482 54.8012 334.32 51.7793C334.069 49.2521 333.002 48.599 330.842 48.1083C329.31 47.7829 327.762 47.5378 326.205 47.374C326.043 46.8833 327.31 44.669 327.724 44.1899" fill="#21313C"/>
<path d="M399.808 48.3324C399.479 48.4135 399.066 49.2328 399.066 49.6385C398.981 52.5792 398.9 60.2499 398.9 65.5555C398.921 65.6569 398.971 65.7499 399.045 65.8228C399.118 65.8957 399.212 65.9452 399.313 65.9651C400.384 66.0463 403.027 66.1313 405.257 66.1313C408.394 66.1313 410.211 65.7217 411.2 65.2309C413.843 63.9248 415.064 61.0652 415.064 57.9661C415.064 50.8635 410.11 48.1701 402.764 48.1701C401.771 48.1576 400.778 48.2118 399.792 48.3324H399.808ZM418.534 80.9856C418.534 73.8019 413.248 69.7212 403.587 69.7212C403.178 69.7212 400.109 69.6401 399.379 69.8024C399.132 69.8835 398.884 70.0458 398.884 70.212C398.884 75.3553 398.799 83.5979 399.051 86.8632C399.217 88.2505 400.21 90.2097 401.443 90.7816C402.764 91.5158 405.736 91.6781 407.799 91.6781C413.495 91.6781 418.534 88.4978 418.534 80.9856V80.9856ZM384.892 44.3329C385.638 44.3329 387.833 44.5763 393.447 44.5763C398.73 44.5763 403.023 44.414 408.132 44.414C414.488 44.414 423.237 46.7017 423.237 56.1692C423.237 60.8063 419.937 64.5779 415.644 66.3747C415.396 66.4559 415.396 66.6182 415.644 66.6993C421.753 68.2451 427.117 72.005 427.117 79.1887C427.117 86.2101 422.742 90.6193 416.386 93.3938C412.521 95.1096 407.718 95.6776 402.861 95.6776C399.147 95.6776 389.193 95.2912 383.659 95.353C383.079 95.1096 384.189 92.4935 384.683 92.0877C385.951 92.0487 387.209 91.8514 388.428 91.5003C390.406 91.0134 390.642 90.3758 390.889 87.4351C391.055 84.904 391.055 75.8422 391.055 69.3927C391.055 60.5745 391.14 54.6196 391.055 51.6789C390.974 49.3951 390.147 48.657 388.578 48.2512C387.342 48.0039 385.278 47.7605 383.628 47.517C383.215 47.1074 384.486 44.6575 384.896 44.3329" fill="#21313C"/>
<path d="M88.791 95.4187C88.5783 94.8962 88.4923 94.3308 88.5398 93.7687C88.5213 93.3855 88.6081 93.0046 88.791 92.6673C89.8587 92.5134 90.9167 92.2979 91.9597 92.022C93.4204 91.6588 93.9691 90.8627 94.0541 89.0001C94.2937 84.5987 94.3091 76.3407 94.2241 70.5366V70.3665C94.2241 69.7405 94.2241 68.8904 93.4513 68.2914C92.0929 67.4392 90.6181 66.7884 89.073 66.3593C88.3813 66.1545 87.9988 65.7912 88.0181 65.3662C88.0374 64.9411 88.4741 64.4387 89.3745 64.261C91.7664 64.0175 98.0343 62.522 100.496 61.3859C100.749 61.7163 100.867 62.131 100.824 62.5452C100.824 62.8003 100.786 63.0708 100.759 63.349C100.689 64.1682 100.612 65.0995 100.612 66.027C100.627 66.1396 100.673 66.2458 100.745 66.3336C100.818 66.4214 100.913 66.4872 101.021 66.5238C101.128 66.5603 101.244 66.5661 101.355 66.5405C101.465 66.5148 101.567 66.4588 101.647 66.3786C106.335 62.7037 110.535 61.3937 112.688 61.3937C116.231 61.3937 118.99 63.0862 121.127 66.5718C121.176 66.656 121.246 66.7261 121.33 66.7755C121.414 66.8249 121.509 66.8519 121.606 66.8539C121.695 66.8531 121.782 66.8309 121.86 66.7891C121.938 66.7474 122.005 66.6875 122.055 66.6143C126.363 63.3451 130.633 61.3937 133.493 61.3937C140.248 61.3937 144.286 66.452 144.286 74.9187C144.286 77.3532 144.263 80.4407 144.24 83.3196C144.22 85.8469 144.201 88.2157 144.201 89.8541C144.201 90.2406 144.734 91.3535 145.534 91.5737C146.523 92.0568 147.949 92.3041 149.754 92.6132H149.823C149.959 93.1001 149.673 94.9898 149.398 95.3762C148.95 95.3762 148.332 95.3376 147.559 95.2989C146.156 95.2294 144.232 95.1328 141.994 95.1328C137.504 95.1328 135.159 95.2178 132.917 95.3646C132.747 94.8043 132.689 92.9958 132.894 92.6171C133.822 92.472 134.741 92.272 135.645 92.0181C137.075 91.5467 137.489 90.8975 137.578 89.0001C137.612 87.6515 137.871 75.7688 137.411 72.9479C136.986 70.0226 134.784 66.5989 129.965 66.5989C128.176 66.5989 125.289 67.3447 122.538 69.4314C122.367 69.6248 122.271 69.8729 122.267 70.1308V70.1888C122.592 71.7113 122.592 73.4889 122.592 76.1746C122.592 77.7203 122.592 79.3317 122.573 80.9431C122.553 84.22 122.538 87.3114 122.592 89.6493C122.592 91.2414 123.554 91.624 124.331 91.9293C124.752 92.022 125.084 92.1032 125.421 92.1804C126.066 92.3389 126.738 92.5012 127.739 92.6596C127.887 93.3385 127.874 94.0426 127.7 94.7154C127.659 94.9679 127.56 95.2074 127.411 95.4148C124.914 95.3298 122.352 95.2564 118.654 95.2564C117.534 95.2564 115.706 95.3028 114.09 95.3453C112.78 95.3801 111.544 95.4148 110.841 95.4187C110.65 94.9699 110.566 94.4834 110.593 93.9967C110.554 93.5381 110.643 93.0776 110.852 92.6673L111.845 92.4857C112.711 92.3311 113.461 92.1998 114.164 92.022C115.385 91.6356 115.845 90.9709 115.934 89.4136C116.173 85.7812 116.359 75.3128 115.845 72.6929C114.971 68.4885 112.579 66.3554 108.731 66.3554C106.478 66.3554 103.63 67.4413 101.304 69.1841C101.08 69.402 100.903 69.6638 100.786 69.953C100.668 70.2423 100.611 70.5528 100.62 70.865C100.62 72.1132 100.62 73.5971 100.62 75.1892C100.62 80.4446 100.585 86.9868 100.712 89.8155C100.79 90.6888 101.099 91.7245 102.733 92.1032C103.093 92.2075 103.711 92.308 104.43 92.4278C104.843 92.4973 105.295 92.5707 105.763 92.6558C105.912 93.5811 105.836 94.5286 105.543 95.4187C104.824 95.4187 103.939 95.3723 102.927 95.3298C101.381 95.2603 99.4486 95.1753 97.2653 95.1753C94.684 95.1753 92.8871 95.2603 91.4457 95.3298C90.4758 95.3762 89.6372 95.4148 88.7987 95.4187" fill="#21313C"/>
<path d="M171.661 64.887C170.266 64.858 168.894 65.244 167.719 65.996C164.852 67.7388 163.391 71.2206 163.391 76.3369C163.391 85.9126 168.187 92.6016 175.053 92.6016C176.895 92.66 178.69 92.0242 180.085 90.8202C182.195 89.1006 183.315 85.5841 183.315 80.661C183.315 71.2283 178.628 64.887 171.653 64.887H171.661ZM172.974 96.1529C160.57 96.1529 156.153 87.0525 156.153 78.5395C156.153 72.5924 158.584 67.9436 163.379 64.717C166.738 62.6376 170.594 61.4979 174.543 61.4169C184.007 61.4169 190.619 68.2219 190.619 77.9715C190.619 84.5949 187.979 89.8271 182.983 93.0963C180.583 94.5647 176.414 96.1529 172.974 96.1529" fill="#21313C"/>
<path d="M297.945 64.887C296.548 64.8553 295.173 65.2415 293.996 65.996C291.129 67.7388 289.668 71.2206 289.668 76.3369C289.668 85.9126 294.464 92.6016 301.33 92.6016C303.177 92.664 304.979 92.0278 306.377 90.8202C308.487 89.1006 309.604 85.5841 309.604 80.661C309.604 71.2283 304.92 64.887 297.945 64.887V64.887ZM299.267 96.1529C286.863 96.1529 282.446 87.0525 282.446 78.5434C282.446 72.5885 284.876 67.9436 289.676 64.717C293.033 62.6363 296.887 61.4965 300.836 61.4169C310.299 61.4169 316.911 68.2257 316.911 77.9676C316.911 84.5987 314.272 89.8271 309.275 93.0924C306.876 94.5647 302.706 96.1529 299.267 96.1529" fill="#21313C"/>
<path d="M256.18 64.5624C252.358 64.5624 249.885 67.5804 249.885 72.2523C249.885 76.9242 252.014 82.4772 258 82.4772C259.028 82.4772 260.891 82.0212 261.814 81.0049C263.205 79.7258 264.133 77.0827 264.133 74.2927C264.133 68.1987 261.165 64.5624 256.199 64.5624H256.18ZM255.705 96.806C254.625 96.7942 253.561 97.0604 252.613 97.5788C249.588 99.511 248.185 101.443 248.185 103.688C248.185 105.79 249 107.464 250.755 108.948C252.88 110.748 255.747 111.626 259.515 111.626C266.931 111.626 270.254 107.638 270.254 103.688C270.254 100.937 268.874 99.0936 266.034 98.0503C263.847 97.2504 260.191 96.8099 255.716 96.8099L255.705 96.806ZM256.211 115.745C251.759 115.745 248.552 114.806 245.812 112.696C243.146 110.64 241.948 107.587 241.948 105.477C241.977 104.118 242.496 102.814 243.409 101.806C244.182 100.925 245.978 99.2753 250.133 96.4196C250.197 96.3922 250.252 96.3464 250.29 96.288C250.329 96.2296 250.349 96.1611 250.349 96.0911C250.35 96.013 250.325 95.9368 250.277 95.875C250.229 95.8132 250.162 95.7695 250.086 95.751C246.666 94.441 245.635 92.2732 245.321 91.1139C245.321 91.0714 245.321 91.0057 245.287 90.9323C245.19 90.4763 245.097 90.0435 245.72 89.5991C246.199 89.259 246.964 88.8031 247.783 88.32C248.939 87.6799 250.049 86.958 251.102 86.1599C251.159 86.099 251.201 86.026 251.225 85.9464C251.249 85.8668 251.255 85.7828 251.241 85.7007C251.228 85.6187 251.196 85.5408 251.148 85.473C251.099 85.4052 251.036 85.3494 250.963 85.3097C245.901 83.6095 243.351 79.8495 243.351 74.1033C243.335 72.3115 243.752 70.5423 244.566 68.946C245.38 67.3496 246.567 65.9731 248.026 64.9334C250.063 63.322 255.175 61.3859 258.487 61.3859H258.68C262.085 61.4671 264.005 62.182 266.664 63.1635C268.176 63.7104 269.779 63.9648 271.386 63.9132C274.203 63.9132 275.436 63.0205 276.495 61.9811C276.666 62.4493 276.758 62.9431 276.765 63.4418C276.83 64.6299 276.507 65.8069 275.845 66.7959C275.27 67.5959 273.913 68.1755 272.673 68.1755C272.545 68.1755 272.422 68.1755 272.286 68.1562C271.634 68.1102 270.987 68.0028 270.354 67.8354L270.037 67.9475C269.937 68.0944 270.003 68.2567 270.084 68.4653C270.104 68.5061 270.119 68.5489 270.13 68.5928C270.356 69.6242 270.51 70.6701 270.59 71.7229C270.59 77.7319 268.221 80.348 265.659 82.2879C263.182 84.1464 260.241 85.2857 257.158 85.5802V85.5802C257.092 85.5802 256.771 85.6073 256.169 85.6614C255.782 85.6962 255.28 85.7425 255.206 85.7425H255.133C254.576 85.8971 253.123 86.5888 253.123 87.8756C253.123 88.9422 253.78 90.2676 256.922 90.5072L258.955 90.6502C263.097 90.94 268.271 91.2994 270.706 92.1225C272.321 92.6903 273.716 93.753 274.692 95.1593C275.668 96.5656 276.176 98.2438 276.143 99.9554C276.143 105.346 272.31 110.416 265.891 113.515C262.864 114.961 259.55 115.705 256.196 115.691" fill="#21313C"/>
<path d="M237.222 92.5437C235.406 92.3002 234.08 92.0529 232.515 91.3187C232.208 91.0006 232.006 90.596 231.936 90.1594C231.769 87.6283 231.769 80.2823 231.769 75.4751C231.769 71.5529 231.113 68.133 229.451 65.6792C227.469 62.9007 224.663 61.27 221.031 61.27C217.812 61.27 213.518 63.4727 209.971 66.4945C209.886 66.5757 209.341 67.0935 209.353 66.2897C209.364 65.486 209.488 63.8552 209.565 62.8119C209.6 62.5347 209.569 62.2533 209.475 61.9902C209.381 61.7272 209.226 61.4898 209.024 61.2971C206.706 62.4564 200.202 64.0021 197.795 64.2378C196.04 64.5778 195.596 66.2665 197.47 66.8501H197.497C198.997 67.2637 200.429 67.8938 201.748 68.7204C202.49 69.2923 202.409 70.1076 202.409 70.7607C202.49 76.2287 202.49 84.6374 202.242 89.2088C202.161 91.0057 201.663 91.6588 200.341 91.9872L200.465 91.9447C199.458 92.1969 198.438 92.3879 197.408 92.5166C196.995 92.9224 196.995 95.2912 197.408 95.782C198.235 95.782 202.432 95.5385 205.91 95.5385C210.694 95.5385 213.171 95.782 214.411 95.782C214.91 95.21 215.072 93.0074 214.743 92.5166C213.6 92.4649 212.465 92.3006 211.354 92.0259C210.037 91.7013 209.704 91.0443 209.623 89.5798C209.461 85.7387 209.461 77.5773 209.461 72.0243C209.461 70.4786 209.871 69.7405 210.365 69.3193C212.015 67.8509 214.743 66.8732 217.135 66.8732C219.454 66.8732 221 67.6074 222.159 68.5851C223.509 69.7633 224.356 71.4149 224.524 73.1991C224.852 76.2905 224.767 82.5081 224.767 87.8834C224.767 90.8241 224.524 91.5622 223.45 91.8868C222.955 92.1302 221.633 92.3775 220.065 92.5398C219.57 93.0306 219.732 95.3144 220.065 95.8051C222.209 95.8051 224.702 95.5617 228.319 95.5617C232.859 95.5617 235.75 95.8051 236.905 95.8051C237.4 95.2332 237.566 93.1001 237.237 92.5398" fill="#21313C"/>
</svg>
