<svg width="180" height="119" viewBox="0 0 180 119" fill="none" xmlns="http://www.w3.org/2000/svg">
<rect width="180" height="118" rx="10" fill="white"/>
<path d="M46.6761 31.4936H76.6258V34.4088H49.4215V56.3495H75.0035V59.2647H49.4215V83.3534H76.9377V86.2686H46.6761V31.4936ZM79.3088 31.4936H82.4909L96.5922 55.5823L111.005 31.4936L130.61 0.895325L98.4016 58.114L114.999 86.2686H111.692L96.5922 60.6456L81.4302 86.2686H78.1856L94.9075 58.114L79.3088 31.4936ZM116.184 34.4088V31.4936H150.314V34.4088H134.591V86.2686H131.845V34.4088H116.184Z" fill="black"/>
<path d="M9.20789 31.4936H12.6396L59.9612 118.214L40.4054 86.2687L12.0781 35.6362L11.9533 86.2687H9.20789V31.4936Z" fill="black"/>
<path d="M150.038 82.4738C150.605 82.4738 151.019 81.9416 151.019 81.2538C151.019 80.566 150.605 80.0337 150.038 80.0337C149.477 80.0337 149.056 80.566 149.056 81.2538C149.056 81.9416 149.477 82.4738 150.038 82.4738ZM152.735 79.264C152.735 81.2947 153.931 82.6212 155.674 82.6212C157.53 82.6212 158.652 81.2538 158.652 78.8792V70.5191H157.156V78.871C157.156 80.1893 156.615 80.8935 155.66 80.8935C154.805 80.8935 154.225 80.2384 154.204 79.264H152.735ZM160.608 79.1576C160.715 81.2701 162.151 82.6212 164.287 82.6212C166.571 82.6212 168 81.2046 168 78.9447C168 77.1679 167.185 76.1853 165.209 75.6203L164.147 75.301C162.892 74.9407 162.384 74.4576 162.384 73.6142C162.384 72.5498 163.172 71.8538 164.354 71.8538C165.476 71.8538 166.251 72.5334 166.391 73.6224H167.846C167.76 71.6327 166.331 70.2325 164.374 70.2325C162.271 70.2325 160.869 71.6327 160.869 73.7371C160.869 75.4729 161.663 76.5046 163.406 77.0041L164.648 77.3726C165.923 77.7411 166.484 78.2815 166.484 79.1822C166.484 80.2302 165.603 80.9917 164.401 80.9917C163.112 80.9917 162.217 80.2794 162.09 79.1576H160.608Z" fill="black"/>
</svg>
