<svg width="121" height="122" viewBox="0 0 121 122" fill="none" xmlns="http://www.w3.org/2000/svg">
<path d="M120.793 61.0651C120.793 94.2842 93.9667 121.214 60.8741 121.214C30.3421 121.214 5.14415 98.2909 1.42915 68.6537C1.11621 66.169 0.954712 63.6355 0.954712 61.0651C0.954712 56.3563 1.49282 51.7728 2.51262 47.3757C8.68548 20.7534 32.4723 0.916565 60.8741 0.916565C89.205 0.916565 112.945 20.6551 119.187 47.1795C120.006 50.6483 120.522 54.2328 120.71 57.9031C120.767 58.9512 120.793 60.0045 120.793 61.0651Z" fill="#F2F2F2"/>
<path d="M57.8769 65.8955V50.2571L44.3853 42.4381L30.8938 50.2571V65.8955L44.3853 73.7146L57.8769 65.8955Z" fill="#3B8739"/>
<path d="M111.011 63.5225L119.803 68.6192L111.011 73.7158L97.5202 65.8965V50.2579L111.011 42.4386L119.187 47.1793C120.006 50.6481 120.522 54.2326 120.71 57.9029L115.711 60.7999V55.3522L111.011 52.6295L106.31 55.3522V60.7999L111.011 63.5225Z" fill="#333333"/>
<path d="M113.629 59.5942V56.5586L111.01 55.0408L108.391 56.5586V59.5942L111.01 61.1123L113.629 59.5942Z" fill="#66A060"/>
<path d="M24.5213 50.2581V70.8804L15.5235 65.7273V55.156L11.031 52.5511L6.53821 55.1558V65.7271L1.42915 68.6537C1.11621 66.1691 0.954712 63.6355 0.954712 61.0651C0.954712 56.3564 1.49282 51.7729 2.51262 47.3757L11.031 42.4386L24.5213 50.2581Z" fill="#333333"/>
<path d="M57.8756 65.8937L44.3842 42.4373L30.8934 50.2563L44.3847 73.7126L57.8756 65.8937Z" fill="#6DA75D"/>
<path d="M30.8938 65.8955L35.5263 58.3121L30.8938 50.2571V65.8955Z" fill="#55A344"/>
<path d="M53.3793 58.0757L57.877 50.2571L44.3853 42.4381L53.3793 58.0757Z" fill="#639D57"/>
<path d="M82.0685 24.3132V45.0607L77.5464 42.4386L64.0536 50.2579V65.8965L77.5464 73.7158L91.0369 65.8965V29.1323L82.0685 24.3132ZM82.0439 60.6821L77.5462 63.2894L73.0485 60.6821V55.4701L77.5462 52.8628L82.0439 55.4701V60.6821Z" fill="#333333"/>
<path d="M66.9946 85.199C66.9946 85.199 66.7296 82.9131 64.2937 82.9131C61.8577 82.9131 60.1897 83.232 60.1897 84.5877C60.1897 85.9433 64.9295 85.9434 66.7301 86.4748C68.5307 87.0063 70.1193 88.3885 69.3249 90.8339C68.5305 93.2794 66.0944 93.5451 62.3344 93.5451C58.5745 93.5451 57.727 90.4084 57.727 89.186H59.8452C59.8452 89.186 59.5802 91.0997 62.0692 91.4185C64.5582 91.7373 66.9382 91.9168 67.2591 89.9834C67.6827 87.4316 59.2095 88.7076 58.468 86.2091C57.8417 84.098 58.203 81.3185 62.4398 80.893C66.6765 80.4675 69.0066 82.3452 69.0066 85.1459L66.9946 85.199Z" fill="#66A060"/>
<path d="M46.5316 95.1644L51.2147 97.8784C53.5677 99.242 56.5089 97.5374 56.5089 94.8101V90.0541V81.3013H54.6001V94.2772C54.6001 95.7666 52.994 96.6977 51.7088 95.9527L48.4401 94.0585V80.2102L60.3873 73.2868L72.3344 80.2102V94.0585L60.3873 100.982L56.9456 98.9873L54.6982 99.8971L60.387 103.194L74.2429 95.1637V79.1043L60.3873 71.0742L46.5314 79.1047V95.1644H46.5316Z" fill="#66A060"/>
</svg>
