<svg width="121" height="122" viewBox="0 0 121 122" fill="none" xmlns="http://www.w3.org/2000/svg">
<path d="M120.249 61.0651C120.249 67.1683 119.344 73.0605 117.659 78.6113C117.659 78.6136 117.659 78.6136 117.657 78.6162C115.712 85.0213 112.736 90.9725 108.916 96.2729V96.2752C103.469 103.834 96.313 110.072 88.0198 114.418C85.5764 115.699 83.0355 116.817 80.4112 117.752C78.2833 118.513 76.0993 119.154 73.8666 119.672H73.8643C69.5131 120.681 64.9862 121.214 60.3295 121.214C50.6078 121.214 41.4292 118.891 33.312 114.767C25.7231 110.912 19.061 105.484 13.7563 98.9095C8.93345 92.9389 5.23062 86.023 2.96094 78.4811C1.30286 72.9696 0.410156 67.1218 0.410156 61.0651C0.410156 27.8459 27.237 0.916565 60.3295 0.916565C93.4221 0.916565 120.249 27.8459 120.249 61.0651Z" fill="#264D6F"/>
<path d="M83.3771 20.3694V48.0398C83.3771 54.5532 78.5462 59.8328 72.5859 59.8328H46.648C39.1501 59.8328 33.0727 66.4768 33.0727 74.6707V88.2608H24.5922C23.0566 88.2608 21.5817 87.9289 20.2011 87.2604C16.0699 81.6924 12.8981 75.243 10.9539 68.2099C10.8009 66.4746 10.7213 64.6222 10.7213 62.6533C10.7213 45.462 16.9329 37.0459 24.5922 37.0459H60.238V33.0531H36.5146V20.3696C36.5146 13.9294 47.0061 8.70721 59.9469 8.70721C72.8876 8.70721 83.3771 13.9292 83.3771 20.3694Z" fill="#3876AC"/>
<path d="M46.7276 26.1416C49.109 26.1416 51.0395 24.0319 51.0395 21.4295C51.0395 18.827 49.109 16.7174 46.7276 16.7174C44.3463 16.7174 42.4158 18.827 42.4158 21.4295C42.4158 24.0319 44.3463 26.1416 46.7276 26.1416Z" fill="#F2F2F2"/>
<path d="M109.589 62.9573C109.589 65.7245 109.449 68.2808 109.185 70.6238C109.185 70.6261 109.185 70.6261 109.183 70.6287C107.518 77.0292 104.969 82.976 101.697 88.2726V88.2749C99.8879 89.6904 97.8626 90.3945 95.7243 90.3945H60.0878V94.6754H83.803V106.405C81.7106 107.685 79.5346 108.801 77.2872 109.736C75.465 110.497 73.5946 111.137 71.6826 111.655H71.6806C67.9544 112.663 64.0776 113.195 60.0898 113.195C51.7645 113.195 43.9041 110.874 36.9528 106.753V78.6165C36.9528 71.6371 41.7847 65.9774 47.7432 65.9774H73.6742C81.1702 65.9774 87.246 58.8603 87.246 50.0803V35.5177H95.7241C103.381 35.5175 109.589 44.3492 109.589 62.9573Z" fill="#F7CD00"/>
<path d="M73.1147 107.267C75.4961 107.267 77.4265 105.158 77.4265 102.555C77.4265 99.9527 75.4961 97.843 73.1147 97.843C70.7333 97.843 68.8028 99.9527 68.8028 102.555C68.8028 105.158 70.7333 107.267 73.1147 107.267Z" fill="#F2F2F2"/>
</svg>
