<svg width="125" height="122" viewBox="0 0 125 122" fill="none" xmlns="http://www.w3.org/2000/svg">
<path d="M121.889 27.9463C116.632 20.8782 105.329 17.9421 90.0998 19.6273C89.5618 19.6815 88.9916 19.7632 88.4536 19.8174C88.2322 19.3831 88.0109 18.9477 87.7573 18.5134C81.2036 6.57854 72.2432 0 62.4912 0C52.7393 0 43.7479 6.57854 37.2251 18.5134C37.0038 18.9477 36.7502 19.3831 36.5288 19.8174C35.9587 19.7367 35.4207 19.6815 34.8827 19.6273C19.6221 17.9144 8.35013 20.8782 3.09383 27.9463C-2.16123 35.0144 -0.547234 45.0452 7.62167 56.191C8.6989 57.6597 9.87013 59.1272 11.1366 60.5682C9.87013 62.0358 8.6989 63.4768 7.62167 64.9444C-0.547234 76.0902 -2.16123 86.1486 3.09383 93.1901C7.36813 98.9531 15.6644 101.971 26.8399 101.971C29.5188 101.958 32.1939 101.804 34.8505 101.508C35.3885 101.454 35.9587 101.372 36.4967 101.318C36.7193 101.753 36.9407 102.188 37.1942 102.623C43.7479 114.557 52.7083 121.136 62.4591 121.136C72.211 121.136 81.2036 114.557 87.7252 102.623C87.9466 102.188 88.2001 101.753 88.4215 101.318C88.9916 101.4 89.5296 101.454 90.0689 101.508C92.723 101.817 95.3994 101.971 98.0782 101.971C109.255 101.971 117.55 98.9531 121.824 93.1901C127.081 86.1221 125.465 76.0902 117.298 64.9444C116.22 63.4768 115.049 62.0092 113.783 60.5682C115.049 59.0996 116.22 57.6597 117.298 56.191C125.561 45.0187 127.176 34.9868 121.889 27.9463V27.9463ZM42.9564 20.8241C48.3066 11.0375 55.4305 5.43699 62.4912 5.43699C69.552 5.43699 76.6758 11.0375 82.0261 20.8241C82.0298 20.8443 82.0409 20.8634 82.0583 20.8782C75.3327 22.2672 68.7728 24.1872 62.4591 26.6136C56.1528 24.1755 49.5904 22.2545 42.8611 20.8782C42.9242 20.8782 42.9242 20.8506 42.9564 20.8241V20.8241ZM91.0187 60.5682C91.0199 64.9178 90.7454 69.2653 90.195 73.5894C86.2485 76.3238 82.1263 78.865 77.847 81.2012C72.9086 83.9239 67.7685 86.3674 62.4591 88.5145C57.1607 86.3504 52.0207 83.908 47.0723 81.2012C42.798 78.8586 38.6759 76.3174 34.7244 73.5894C33.6261 64.9337 33.6261 56.2017 34.7244 47.546C43.2581 41.6577 52.5673 36.6487 62.4591 32.6219C67.7587 34.785 72.8975 37.2274 77.847 39.9342C82.1213 42.2768 86.2435 44.818 90.195 47.546C90.7454 51.8712 91.0199 56.2176 91.0187 60.5682V60.5682ZM97.0653 52.657C100.166 55.1366 103.085 57.7786 105.804 60.5682C103.085 63.3568 100.166 65.9988 97.0653 68.4784C97.2558 65.8693 97.351 63.2326 97.351 60.5682C97.351 57.9039 97.2558 55.2672 97.0653 52.657ZM88.8964 81.3105C87.8971 86.0169 86.4463 90.6447 84.559 95.1472C79.6416 94.1936 74.8157 92.9215 70.1221 91.3414C73.8572 89.6561 77.5935 87.8073 81.2976 85.7961C83.8949 84.355 86.4278 82.8599 88.8964 81.3105V81.3105ZM54.8603 91.3414C50.1754 92.9417 45.347 94.2149 40.4234 95.1472C38.5361 90.6447 37.0854 86.0169 36.0861 81.3105C38.5237 82.8599 41.0567 84.355 43.6848 85.7684C47.389 87.8073 51.1253 89.6561 54.8603 91.3414ZM27.9172 68.4784C24.8166 65.9988 21.899 63.3568 19.1781 60.5682C21.899 57.7786 24.8166 55.1366 27.9172 52.657C27.7267 55.2672 27.6315 57.9039 27.6315 60.5682C27.6315 63.2326 27.7267 65.8693 27.9172 68.4784ZM36.0861 39.8259C37.0854 35.1185 38.5361 30.4907 40.4234 25.9892C45.3409 26.9417 50.168 28.2139 54.8603 29.7951C51.1253 31.4804 47.389 33.3291 43.6848 35.3404C41.0876 36.7814 38.5547 38.2766 36.0861 39.8259ZM81.2667 35.3404C77.5935 33.3291 73.8572 31.4527 70.09 29.7951C74.7749 28.1948 79.6033 26.9216 84.5281 25.9892C86.4142 30.4907 87.8649 35.1185 88.8655 39.8259C86.4278 38.2766 83.8949 36.7814 81.2667 35.3404ZM12.9732 53.2825C6.25998 44.1479 4.61383 35.9659 8.41321 30.8549C11.4532 26.7772 18.039 24.5747 26.9352 24.5747C29.3172 24.5832 31.6967 24.7202 34.059 24.9825H34.1221C31.5607 31.3774 29.7785 37.9824 28.8039 44.6916C23.9248 48.1863 19.3822 52.0145 15.2204 56.1369C14.4289 55.213 13.6695 54.2615 12.9732 53.2825ZM34.0281 96.1263C31.6658 96.3897 29.2863 96.5256 26.9042 96.5341C18.0069 96.5341 11.421 94.3593 8.38229 90.254C4.58291 85.143 6.22906 76.961 12.941 67.8264C13.6373 66.8749 14.398 65.8958 15.1895 64.9444C19.35 69.0678 23.8927 72.8949 28.7718 76.3896C29.7476 83.0999 31.5298 89.705 34.0911 96.0987C34.0911 96.1263 34.059 96.1263 34.0281 96.1263ZM82.0261 100.312C76.6758 110.099 69.552 115.699 62.4912 115.699C55.4305 115.699 48.3066 110.099 42.9564 100.312C42.9526 100.292 42.9415 100.273 42.9242 100.258C49.6498 98.8692 56.2096 96.9493 62.5234 94.5218C68.8297 96.961 75.392 98.882 82.1213 100.258C82.0583 100.258 82.0583 100.285 82.0261 100.312ZM112.009 67.854C118.722 76.9875 120.369 85.1706 116.569 90.2816C112.77 95.3915 103.43 97.5397 90.9544 96.1263H90.8913C93.4527 89.7315 95.2361 83.1264 96.2107 76.4173C101.09 72.9225 105.632 69.0943 109.793 64.972C110.554 65.9234 111.313 66.8749 112.009 67.854V67.854ZM96.1785 44.7192C95.204 38.009 93.4218 31.4039 90.8604 25.0101H90.9235C103.398 23.6233 112.738 25.7439 116.537 30.8549C120.336 35.9659 118.69 44.1479 111.978 53.2825C111.282 54.2339 110.521 55.213 109.73 56.1645C105.588 52.0347 101.055 48.2065 96.1785 44.7192Z" fill="url(#paint0_linear)"/>
<path d="M62.4912 49.8026C55.5665 49.8026 49.9528 54.6226 49.9528 60.5683C49.9528 66.5139 55.5665 71.3329 62.4912 71.3329C69.4159 71.3329 75.0297 66.5139 75.0297 60.5683C75.0247 54.6237 69.4135 49.8069 62.4912 49.8026ZM62.4912 65.8959C59.0641 65.8959 56.2851 63.5108 56.2851 60.5683C56.2851 57.6257 59.0641 55.2396 62.4912 55.2396C65.9183 55.2396 68.6974 57.6257 68.6974 60.5683C68.6912 63.5087 65.9159 65.8916 62.4912 65.8959Z" fill="url(#paint1_linear)"/>
<path d="M62.4912 65.8959C59.0641 65.8959 56.2851 63.5108 56.2851 60.5683C56.2851 57.6257 59.0641 55.2396 62.4912 55.2396C65.9183 55.2396 68.6974 57.6257 68.6974 60.5683C68.6912 63.5087 65.9159 65.8916 62.4912 65.8959Z" fill="url(#paint2_linear)"/>
<defs>
<linearGradient id="paint0_linear" x1="62.5008" y1="-4.67581" x2="62.5008" y2="127.119" gradientUnits="userSpaceOnUse">
<stop stop-color="#00EFD1"/>
<stop offset="1" stop-color="#00ACEA"/>
</linearGradient>
<linearGradient id="paint1_linear" x1="62.4913" y1="-4.67575" x2="62.4913" y2="127.119" gradientUnits="userSpaceOnUse">
<stop stop-color="#00EFD1"/>
<stop offset="1" stop-color="#00ACEA"/>
</linearGradient>
<linearGradient id="paint2_linear" x1="62.4913" y1="-4.67575" x2="62.4913" y2="127.119" gradientUnits="userSpaceOnUse">
<stop stop-color="#00EFD1"/>
<stop offset="1" stop-color="#00ACEA"/>
</linearGradient>
</defs>
</svg>
